cl__1 = 1;
Point(1) = {0, 0, 0, 1};
Point(2) = {1, 0, 0, 1};
Point(3) = {0, 1, 0, 1};
Point(4) = {0, 0, 1, 1};
Point(5) = {1, 1, 0, 1};
Point(6) = {0, 1, 1, 1};
Point(7) = {1, 0, 1, 1};
Point(8) = {1, 1, 1, 1};

Line(101) = {4, 7};
Line(102) = {7, 8};
Line(103) = {8, 6};
Line(104) = {6, 4};
Line(105) = {7, 2};
Transfinite Line {105} = 2Using Progression 1;
Line(106) = {2, 1};
Transfinite Line {106} = 2Using Progression 1;
Line(107) = {1, 4};
Transfinite Line {107} = 2Using Progression 1;
Line(108) = {8, 5};
Transfinite Line {108} = 2Using Progression 1;
Line(109) = {2, 5};
Transfinite Line {109} = 2Using Progression 1;
Line(110) = {5, 3};
Transfinite Line {110} = 2Using Progression 1;
Line(111) = {3, 6};
Transfinite Line {111} = 2Using Progression 1;
Line(112) = {3, 1};
Transfinite Line {112} = 2Using Progression 1;

Line Loop(314) = {102, 108, -109, -105};
Plane Surface(314) = {314};
Line Loop(316) = {103, -111, -110, -108};
Plane Surface(316) = {316};
Line Loop(318) = {104, -107, -112, 111};
Plane Surface(318) = {318};
Line Loop(320) = {112, -106, 109, 110};
Plane Surface(320) = {320};
Line Loop(322) = {107, 101, 105, 106};
Plane Surface(322) = {322};
Line Loop(324) = {101, 102, 103, 104};
Plane Surface(324) = {324};
Surface Loop(426) = {314, 316, 318, 320, 322, 324};
Volume(426) = {426};
Physical Volume(427) = {426};
