// Gmsh file created using the Voronoi tesselation generator
// Timestamp: Fri Feb  5 11:08:13 2016

// Number of cells : 5
// Dimensions      : (-1, 1) (-1, 1) (-1, 1)
// Volume          : 8

Point(1) = {-1, 0.516945, -0.239307, 0.4};
Point(2) = {-0.190907, -0.026445, 0.165582, 0.4};
Point(3) = {-1, 1, -0.0559642, 0.4};
Point(4) = {0.39802, 1, 1, 0.4};
Point(5) = {-1, -0.491114, 1, 0.4};
Point(6) = {0.175215, -0.802025, 1, 0.4};
Point(7) = {-1, 1, 1, 0.4};
Point(8) = {0.920566, -0.0399068, 1, 0.4};
Point(9) = {-0.275219, 0.141142, -0.251226, 0.4};
Point(10) = {1, 0.31374, 0.307027, 0.4};
Point(11) = {-1, 1, -0.782704, 0.4};
Point(12) = {1, 1, 0.153426, 0.4};
Point(13) = {1, -0.0127711, 1, 0.4};
Point(14) = {0.39802, 1, 1, 0.4};
Point(15) = {-1, 1, -0.0559642, 0.4};
Point(16) = {1, 1, 1, 0.4};
Point(17) = {-1, 0.655031, -0.705491, 0.4};
Point(18) = {0.920566, -0.0399068, 1, 0.4};
Point(19) = {-0.190907, -0.026445, 0.165582, 0.4};
Point(20) = {-1, 0.516945, -0.239307, 0.4};
Point(21) = {0.220014, -1, -1, 0.4};
Point(22) = {1, -1, -1, 0.4};
Point(23) = {-0.190907, -0.026445, 0.165582, 0.4};
Point(24) = {-0.245984, 0.0392321, -1, 0.4};
Point(25) = {0.920566, -0.0399068, 1, 0.4};
Point(26) = {1, -1, 1, 0.4};
Point(27) = {1, -0.0127711, 1, 0.4};
Point(28) = {1, 0.132049, -1, 0.4};
Point(29) = {0.175215, -0.802025, 1, 0.4};
Point(30) = {0.263988, -1, 1, 0.4};
Point(31) = {-0.275219, 0.141142, -0.251226, 0.4};
Point(32) = {1, 0.31374, 0.307027, 0.4};
Point(33) = {-1, 0.623863, -1, 0.4};
Point(34) = {-1, 0.655031, -0.705491, 0.4};
Point(35) = {-1, 1, -1, 0.4};
Point(36) = {1, 1, -1, 0.4};
Point(37) = {1, 0.31374, 0.307027, 0.4};
Point(38) = {-1, 1, -0.782704, 0.4};
Point(39) = {1, 0.132049, -1, 0.4};
Point(40) = {1, 1, 0.153426, 0.4};
Point(41) = {-0.245984, 0.0392321, -1, 0.4};
Point(42) = {-0.275219, 0.141142, -0.251226, 0.4};
Point(43) = {-1, -1, -1, 0.4};
Point(44) = {0.220014, -1, -1, 0.4};
Point(45) = {-0.275219, 0.141142, -0.251226, 0.4};
Point(46) = {-1, 0.516945, -0.239307, 0.4};
Point(47) = {-1, -1, 1, 0.4};
Point(48) = {0.175215, -0.802025, 1, 0.4};
Point(49) = {0.263988, -1, 1, 0.4};
Point(50) = {-1, -0.491114, 1, 0.4};
Point(51) = {-1, 0.655031, -0.705491, 0.4};
Point(52) = {-0.190907, -0.026445, 0.165582, 0.4};
Point(53) = {-0.245984, 0.0392321, -1, 0.4};
Point(54) = {-1, 0.623863, -1, 0.4};

Line(1) = {2, 1};
Line(2) = {1, 5};
Line(3) = {5, 6};
Line(4) = {6, 2};

Line Loop(1) = {1, 2, 3, 4};
Plane Surface(1) = {1};

Line(5) = {2, 8};
Line(6) = {8, 4};
Line(7) = {4, 3};
Line(8) = {3, 1};
Line(9) = {1, 2};

Line Loop(2) = {5, 6, 7, 8, 9};
Plane Surface(2) = {2};

Line(10) = {2, 6};
Line(11) = {6, 8};
Line(12) = {8, 2};

Line Loop(3) = {10, 11, 12};
Plane Surface(3) = {3};

Line(13) = {3, 7};
Line(14) = {7, 5};
Line(15) = {5, 1};
Line(16) = {1, 3};

Line Loop(4) = {13, 14, 15, 16};
Plane Surface(4) = {4};

Line(17) = {3, 4};
Line(18) = {4, 7};
Line(19) = {7, 3};

Line Loop(5) = {17, 18, 19};
Plane Surface(5) = {5};

Line(20) = {4, 8};
Line(21) = {8, 6};
Line(22) = {6, 5};
Line(23) = {5, 7};
Line(24) = {7, 4};

Line Loop(6) = {20, 21, 22, 23, 24};
Plane Surface(6) = {6};

Surface Loop(1) = {1, 2, 3, 4, 5, 6};
Volume(1) = {1};
Physical Volume(1) = {1};

Line(25) = {10, 12};
Line(26) = {12, 11};
Line(27) = {11, 17};
Line(28) = {17, 9};
Line(29) = {9, 10};

Line Loop(7) = {25, 26, 27, 28, 29};
Plane Surface(7) = {7};

Line(30) = {10, 13};
Line(31) = {13, 16};
Line(32) = {16, 12};
Line(33) = {12, 10};

Line Loop(8) = {30, 31, 32, 33};
Plane Surface(8) = {8};

Line(34) = {10, 9};
Line(35) = {9, 19};
Line(36) = {19, 18};
Line(37) = {18, 13};
Line(38) = {13, 10};

Line Loop(9) = {34, 35, 36, 37, 38};
Plane Surface(9) = {9};

Line(39) = {11, 15};
Line(40) = {15, 20};
Line(41) = {20, 17};
Line(42) = {17, 11};

Line Loop(10) = {39, 40, 41, 42};
Plane Surface(10) = {10};

Line(43) = {11, 12};
Line(44) = {12, 16};
Line(45) = {16, 14};
Line(46) = {14, 15};
Line(47) = {15, 11};

Line Loop(11) = {43, 44, 45, 46, 47};
Plane Surface(11) = {11};

Line(48) = {13, 18};
Line(49) = {18, 14};
Line(50) = {14, 16};
Line(51) = {16, 13};

Line Loop(12) = {48, 49, 50, 51};
Plane Surface(12) = {12};

Line(52) = {14, 18};
Line(53) = {18, 19};
Line(54) = {19, 20};
Line(55) = {20, 15};
Line(56) = {15, 14};

Line Loop(13) = {52, 53, 54, 55, 56};
Plane Surface(13) = {13};

Line(57) = {17, 20};
Line(58) = {20, 19};
Line(59) = {19, 9};
Line(60) = {9, 17};

Line Loop(14) = {57, 58, 59, 60};
Plane Surface(14) = {14};

Surface Loop(2) = {7, 8, 9, 10, 11, 12, 13, 14};
Volume(2) = {2};
Physical Volume(2) = {2};

Line(61) = {22, 28};
Line(62) = {28, 24};
Line(63) = {24, 21};
Line(64) = {21, 22};

Line Loop(15) = {61, 62, 63, 64};
Plane Surface(15) = {15};

Line(65) = {22, 26};
Line(66) = {26, 27};
Line(67) = {27, 32};
Line(68) = {32, 28};
Line(69) = {28, 22};

Line Loop(16) = {65, 66, 67, 68, 69};
Plane Surface(16) = {16};

Line(70) = {22, 21};
Line(71) = {21, 30};
Line(72) = {30, 26};
Line(73) = {26, 22};

Line Loop(17) = {70, 71, 72, 73};
Plane Surface(17) = {17};

Line(74) = {23, 29};
Line(75) = {29, 30};
Line(76) = {30, 21};
Line(77) = {21, 24};
Line(78) = {24, 31};
Line(79) = {31, 23};

Line Loop(18) = {74, 75, 76, 77, 78, 79};
Plane Surface(18) = {18};

Line(80) = {23, 25};
Line(81) = {25, 29};
Line(82) = {29, 23};

Line Loop(19) = {80, 81, 82};
Plane Surface(19) = {19};

Line(83) = {23, 31};
Line(84) = {31, 32};
Line(85) = {32, 27};
Line(86) = {27, 25};
Line(87) = {25, 23};

Line Loop(20) = {83, 84, 85, 86, 87};
Plane Surface(20) = {20};

Line(88) = {24, 28};
Line(89) = {28, 32};
Line(90) = {32, 31};
Line(91) = {31, 24};

Line Loop(21) = {88, 89, 90, 91};
Plane Surface(21) = {21};

Line(92) = {25, 27};
Line(93) = {27, 26};
Line(94) = {26, 30};
Line(95) = {30, 29};
Line(96) = {29, 25};

Line Loop(22) = {92, 93, 94, 95, 96};
Plane Surface(22) = {22};

Surface Loop(3) = {15, 16, 17, 18, 19, 20, 21, 22};
Volume(3) = {3};
Physical Volume(3) = {3};

Line(97) = {34, 42};
Line(98) = {42, 41};
Line(99) = {41, 33};
Line(100) = {33, 34};

Line Loop(23) = {97, 98, 99, 100};
Plane Surface(23) = {23};

Line(101) = {34, 38};
Line(102) = {38, 40};
Line(103) = {40, 37};
Line(104) = {37, 42};
Line(105) = {42, 34};

Line Loop(24) = {101, 102, 103, 104, 105};
Plane Surface(24) = {24};

Line(106) = {34, 33};
Line(107) = {33, 35};
Line(108) = {35, 38};
Line(109) = {38, 34};

Line Loop(25) = {106, 107, 108, 109};
Plane Surface(25) = {25};

Line(110) = {35, 33};
Line(111) = {33, 41};
Line(112) = {41, 39};
Line(113) = {39, 36};
Line(114) = {36, 35};

Line Loop(26) = {110, 111, 112, 113, 114};
Plane Surface(26) = {26};

Line(115) = {35, 36};
Line(116) = {36, 40};
Line(117) = {40, 38};
Line(118) = {38, 35};

Line Loop(27) = {115, 116, 117, 118};
Plane Surface(27) = {27};

Line(119) = {36, 39};
Line(120) = {39, 37};
Line(121) = {37, 40};
Line(122) = {40, 36};

Line Loop(28) = {119, 120, 121, 122};
Plane Surface(28) = {28};

Line(123) = {37, 39};
Line(124) = {39, 41};
Line(125) = {41, 42};
Line(126) = {42, 37};

Line Loop(29) = {123, 124, 125, 126};
Plane Surface(29) = {29};

Surface Loop(4) = {23, 24, 25, 26, 27, 28, 29};
Volume(4) = {4};
Physical Volume(4) = {4};

Line(127) = {44, 49};
Line(128) = {49, 48};
Line(129) = {48, 52};
Line(130) = {52, 45};
Line(131) = {45, 53};
Line(132) = {53, 44};

Line Loop(30) = {127, 128, 129, 130, 131, 132};
Plane Surface(30) = {30};

Line(133) = {44, 43};
Line(134) = {43, 47};
Line(135) = {47, 49};
Line(136) = {49, 44};

Line Loop(31) = {133, 134, 135, 136};
Plane Surface(31) = {31};

Line(137) = {44, 53};
Line(138) = {53, 54};
Line(139) = {54, 43};
Line(140) = {43, 44};

Line Loop(32) = {137, 138, 139, 140};
Plane Surface(32) = {32};

Line(141) = {45, 51};
Line(142) = {51, 54};
Line(143) = {54, 53};
Line(144) = {53, 45};

Line Loop(33) = {141, 142, 143, 144};
Plane Surface(33) = {33};

Line(145) = {45, 52};
Line(146) = {52, 46};
Line(147) = {46, 51};
Line(148) = {51, 45};

Line Loop(34) = {145, 146, 147, 148};
Plane Surface(34) = {34};

Line(149) = {46, 50};
Line(150) = {50, 47};
Line(151) = {47, 43};
Line(152) = {43, 54};
Line(153) = {54, 51};
Line(154) = {51, 46};

Line Loop(35) = {149, 150, 151, 152, 153, 154};
Plane Surface(35) = {35};

Line(155) = {46, 52};
Line(156) = {52, 48};
Line(157) = {48, 50};
Line(158) = {50, 46};

Line Loop(36) = {155, 156, 157, 158};
Plane Surface(36) = {36};

Line(159) = {47, 50};
Line(160) = {50, 48};
Line(161) = {48, 49};
Line(162) = {49, 47};

Line Loop(37) = {159, 160, 161, 162};
Plane Surface(37) = {37};

Surface Loop(5) = {30, 31, 32, 33, 34, 35, 36, 37};
Volume(5) = {5};
Physical Volume(5) = {5};

Coherence;
Physical Surface(5) = {4, 10, 25, 35};

Physical Surface(3) = {8, 16, 28};

Physical Surface(2) = {17, 31};
Physical Surface(4) = {5, 11, 27};

Physical Surface(1) = {15, 26, 32};

Physical Surface(6) = {6, 12, 22, 37};

