cl__1 = 1;
Point(1000000) = {-10.000000, -10.000000, -10.000000, 1.000000};
Point(2000000) = {10.000000, -10.000000, -10.000000, 1.000000};
Point(3000000) = {-10.000000, 10.000000, -10.000000, 1.000000};
Point(4000000) = {-10.000000, -10.000000, 10.000000, 1.000000};
Point(5000000) = {-10.000000, 10.000000, 10.000000, 1.000000};
Point(6000000) = {10.000000, -10.000000, 10.000000, 1.000000};
Point(7000000) = {10.000000, 10.000000, -10.000000, 1.000000};
Point(8000000) = {10.000000, 10.000000, 10.000000, 1.000000};

Line(1000000) = {4000000, 6000000};
Transfinite Line {1000000} = 10Using Progression 1;

Line(2000000) = {6000000, 8000000};
Transfinite Line {2000000} = 10Using Progression 1;

Line(3000000) = {8000000, 5000000};
Transfinite Line {3000000} = 10Using Progression 1;

Line(4000000) = {5000000, 4000000};
Transfinite Line {4000000} = 10Using Progression 1;

Line(5000000) = {4000000, 1000000};
Transfinite Line {5000000} = 10Using Progression 1;

Line(6000000) = {1000000, 2000000};
Transfinite Line {6000000} = 10Using Progression 1;

Line(7000000) = {2000000, 6000000};
Transfinite Line {7000000} = 10Using Progression 1;

Line(8000000) = {8000000, 7000000};
Transfinite Line {8000000} = 10Using Progression 1;

Line(9000000) = {7000000, 2000000};
Transfinite Line {9000000} = 10Using Progression 1;

Line(10000000) = {5000000, 3000000};
Transfinite Line {10000000} = 10Using Progression 1;

Line(11000000) = {3000000, 1000000};
Transfinite Line {11000000} = 10Using Progression 1;

Line(12000000) = {7000000, 3000000};
Transfinite Line {12000000} = 10Using Progression 1;

Line Loop(14000000) = {2000000, 8000000, 9000000, 7000000};
Plane Surface(14000000) = {14000000};

Line Loop(16000000) = {1000000, -7000000, -6000000, -5000000};
Plane Surface(16000000) = {16000000};

Line Loop(18000000) = {4000000, 5000000, -11000000, -10000000};
Plane Surface(18000000) = {18000000};

Line Loop(20000000) = {8000000, 12000000, -10000000, -3000000};
Plane Surface(20000000) = {20000000};

Line Loop(22000000) = {12000000, 11000000, 6000000, -9000000};
Plane Surface(22000000) = {22000000};

Line Loop(24000000) = {1000000, 2000000, 3000000, 4000000};
Plane Surface(24000000) = {24000000};

Surface Loop(32000000) = {14000000, 24000000, 16000000, 22000000, 20000000, 18000000};
Volume(32000000) = {32000000};

Physical Surface(25000000) = {14000000};
Physical Surface(26000000) = {20000000};
Physical Surface(27000000) = {18000000};
Physical Surface(28000000) = {16000000};
Physical Surface(29000000) = {22000000};
Physical Surface(30000000) = {24000000};
Physical Volume(33000000) = {32000000};
