// Gmsh file created using the Voronoi tesselation generator
// Timestamp: Mon Nov 23 16:20:06 2015

// Number of cells : 20
// Dimensions      : (-1, 1) (-1, 1) (-1, 1)
// Volume          : 8

Point(1) = {-1, -1, -1, 0.5};
Point(2) = {-1, -0.73701, -1, 0.5};
Point(3) = {-0.27661, -0.590872, -0.243923, 0.5};
Point(4) = {-1, -0.514494, -0.900159, 0.5};
Point(5) = {-0.682694, -0.226959, 0.15645, 0.5};
Point(6) = {-1, -1, 0.508008, 0.5};
Point(7) = {-0.17599, -1, -0.331449, 0.5};
Point(8) = {-0.876379, -1, -1, 0.5};
Point(9) = {-1, -0.148114, -0.129338, 0.5};
Point(10) = {-0.852473, -0.397395, -0.706797, 0.5};
Point(11) = {-0.976209, -0.143759, -0.128723, 0.5};
Point(12) = {-1, -0.45262, 0.487966, 0.5};
Point(13) = {0.389986, -0.0304786, -1, 0.5};
Point(14) = {0.248408, -0.108274, -0.310917, 0.5};
Point(15) = {0.068198, 0.389557, -1, 0.5};
Point(16) = {0.376351, -0.188985, -1, 0.5};
Point(17) = {-0.27661, -0.590872, -0.243923, 0.5};
Point(18) = {-0.157402, 0.496972, -0.509125, 0.5};
Point(19) = {0.0562069, 0.400474, -1, 0.5};
Point(20) = {-0.52638, -0.237619, -1, 0.5};
Point(21) = {0.162456, -0.476944, -0.0338253, 0.5};
Point(22) = {0.181227, -0.596183, -0.182118, 0.5};
Point(23) = {-0.852473, -0.397395, -0.706797, 0.5};
Point(24) = {-0.976209, -0.143759, -0.128723, 0.5};
Point(25) = {-0.591715, 0.260666, -0.153533, 0.5};
Point(26) = {-0.643883, -0.215524, 0.176749, 0.5};
Point(27) = {0.0476161, 0.407257, -0.975948, 0.5};
Point(28) = {-0.682694, -0.226959, 0.15645, 0.5};
Point(29) = {-0.876379, -1, -1, 0.5};
Point(30) = {0.415182, -0.27758, -1, 0.5};
Point(31) = {0.376351, -0.188985, -1, 0.5};
Point(32) = {0.344685, -1, -1, 0.5};
Point(33) = {-0.852473, -0.397395, -0.706797, 0.5};
Point(34) = {-1, -0.514494, -0.900159, 0.5};
Point(35) = {-1, -0.73701, -1, 0.5};
Point(36) = {0.177143, -1, -0.282764, 0.5};
Point(37) = {0.191882, -0.616718, -0.185739, 0.5};
Point(38) = {0.181227, -0.596183, -0.182118, 0.5};
Point(39) = {-0.52638, -0.237619, -1, 0.5};
Point(40) = {-1, -0.528219, -1, 0.5};
Point(41) = {-0.27661, -0.590872, -0.243923, 0.5};
Point(42) = {-0.17599, -1, -0.331449, 0.5};
Point(43) = {1, -0.248003, -1, 0.5};
Point(44) = {0.376351, -0.188985, -1, 0.5};
Point(45) = {0.800618, 0.117196, -1, 0.5};
Point(46) = {1, 0.132049, -1, 0.5};
Point(47) = {0.162456, -0.476944, -0.0338253, 0.5};
Point(48) = {1, -0.815248, 0.408856, 0.5};
Point(49) = {1, 0.147871, 0.0517935, 0.5};
Point(50) = {1, -0.578695, 0.492703, 0.5};
Point(51) = {1, 0.176442, -0.680648, 0.5};
Point(52) = {0.188783, -0.483766, 0.0322675, 0.5};
Point(53) = {0.345124, -0.080358, -0.134901, 0.5};
Point(54) = {0.389986, -0.0304786, -1, 0.5};
Point(55) = {0.248408, -0.108274, -0.310917, 0.5};
Point(56) = {0.415182, -0.27758, -1, 0.5};
Point(57) = {0.31124, -0.613696, 0.171924, 0.5};
Point(58) = {0.382279, -0.74514, 0.157138, 0.5};
Point(59) = {0.181227, -0.596183, -0.182118, 0.5};
Point(60) = {0.191882, -0.616718, -0.185739, 0.5};
Point(61) = {0.177143, -1, -0.282764, 0.5};
Point(62) = {1, -1, -1, 0.5};
Point(63) = {1, -0.248003, -1, 0.5};
Point(64) = {1, -0.815248, 0.408856, 0.5};
Point(65) = {0.382279, -0.74514, 0.157138, 0.5};
Point(66) = {1, -1, 0.42304, 0.5};
Point(67) = {0.415182, -0.27758, -1, 0.5};
Point(68) = {0.425122, -1, 0.193789, 0.5};
Point(69) = {0.344685, -1, -1, 0.5};
Point(70) = {0.191882, -0.616718, -0.185739, 0.5};
Point(71) = {-1, -0.528219, -1, 0.5};
Point(72) = {-0.976209, -0.143759, -0.128723, 0.5};
Point(73) = {-1, 0.497115, -1, 0.5};
Point(74) = {-1, -0.514494, -0.900159, 0.5};
Point(75) = {-1, -0.148114, -0.129338, 0.5};
Point(76) = {-0.206639, 0.7484, -0.394819, 0.5};
Point(77) = {-0.0820008, 0.925158, -1, 0.5};
Point(78) = {0.0562069, 0.400474, -1, 0.5};
Point(79) = {-0.52638, -0.237619, -1, 0.5};
Point(80) = {-0.852473, -0.397395, -0.706797, 0.5};
Point(81) = {0.0476161, 0.407257, -0.975948, 0.5};
Point(82) = {-0.539294, 0.68034, -0.194837, 0.5};
Point(83) = {-0.21872, 0.839309, -0.436763, 0.5};
Point(84) = {-1, 0.465458, -0.193167, 0.5};
Point(85) = {-0.157402, 0.496972, -0.509125, 0.5};
Point(86) = {-0.203233, 0.741086, -0.400045, 0.5};
Point(87) = {-0.470059, 0.592224, -0.182562, 0.5};
Point(88) = {-0.591715, 0.260666, -0.153533, 0.5};
Point(89) = {-0.204434, 1, -0.473607, 0.5};
Point(90) = {-0.0794228, 1, -1, 0.5};
Point(91) = {-1, 1, -1, 0.5};
Point(92) = {-1, 0.497115, -1, 0.5};
Point(93) = {-1, 1, -0.168685, 0.5};
Point(94) = {-0.655496, 1, -0.171161, 0.5};
Point(95) = {-0.622493, 0.788738, -0.157443, 0.5};
Point(96) = {-1, 0.653458, -0.145795, 0.5};
Point(97) = {-0.539294, 0.68034, -0.194837, 0.5};
Point(98) = {-1, 0.465458, -0.193167, 0.5};
Point(99) = {-0.21872, 0.839309, -0.436763, 0.5};
Point(100) = {-0.0820008, 0.925158, -1, 0.5};
Point(101) = {-0.0794228, 1, -1, 0.5};
Point(102) = {1, 0.176442, -0.680648, 0.5};
Point(103) = {-0.0820008, 0.925158, -1, 0.5};
Point(104) = {1, 1, -1, 0.5};
Point(105) = {1, 0.565449, 0.250689, 0.5};
Point(106) = {1, 1, 0.153426, 0.5};
Point(107) = {-0.0950308, 1, -0.35912, 0.5};
Point(108) = {0.068198, 0.389557, -1, 0.5};
Point(109) = {-0.203233, 0.741086, -0.400045, 0.5};
Point(110) = {-0.137781, 0.748952, -0.322939, 0.5};
Point(111) = {-0.204434, 1, -0.473607, 0.5};
Point(112) = {-0.21872, 0.839309, -0.436763, 0.5};
Point(113) = {0.800618, 0.117196, -1, 0.5};
Point(114) = {1, 0.132049, -1, 0.5};
Point(115) = {-0.206639, 0.7484, -0.394819, 0.5};
Point(116) = {-0.192322, 0.745817, -0.379004, 0.5};
Point(117) = {0.0476161, 0.407257, -0.975948, 0.5};
Point(118) = {0.0562069, 0.400474, -1, 0.5};
Point(119) = {0.389986, -0.0304786, -1, 0.5};
Point(120) = {0.800618, 0.117196, -1, 0.5};
Point(121) = {1, 0.534218, 0.283313, 0.5};
Point(122) = {-0.137781, 0.748952, -0.322939, 0.5};
Point(123) = {1, 0.147871, 0.0517935, 0.5};
Point(124) = {0.345124, -0.080358, -0.134901, 0.5};
Point(125) = {0.296108, 0.423124, 0.163075, 0.5};
Point(126) = {1, 0.565449, 0.250689, 0.5};
Point(127) = {1, 0.176442, -0.680648, 0.5};
Point(128) = {0.248408, -0.108274, -0.310917, 0.5};
Point(129) = {-0.157402, 0.496972, -0.509125, 0.5};
Point(130) = {-0.203233, 0.741086, -0.400045, 0.5};
Point(131) = {-0.192322, 0.745817, -0.379004, 0.5};
Point(132) = {-0.137012, 0.729572, -0.302436, 0.5};
Point(133) = {0.0476161, 0.407257, -0.975948, 0.5};
Point(134) = {0.068198, 0.389557, -1, 0.5};
Point(135) = {-0.17599, -1, -0.331449, 0.5};
Point(136) = {-1, -0.588666, 1, 0.5};
Point(137) = {-0.27661, -0.590872, -0.243923, 0.5};
Point(138) = {0.425122, -1, 0.193789, 0.5};
Point(139) = {-1, -1, 1, 0.5};
Point(140) = {0.382279, -0.74514, 0.157138, 0.5};
Point(141) = {-1, -1, 0.508008, 0.5};
Point(142) = {-1, -0.45262, 0.487966, 0.5};
Point(143) = {0.181227, -0.596183, -0.182118, 0.5};
Point(144) = {0.191882, -0.616718, -0.185739, 0.5};
Point(145) = {-0.643883, -0.215524, 0.176749, 0.5};
Point(146) = {0.177143, -1, -0.282764, 0.5};
Point(147) = {0.31124, -0.613696, 0.171924, 0.5};
Point(148) = {-0.682694, -0.226959, 0.15645, 0.5};
Point(149) = {-0.91508, -0.551846, 1, 0.5};
Point(150) = {-0.746113, -1, 1, 0.5};
Point(151) = {0.07187, -0.440488, 0.291741, 0.5};
Point(152) = {-0.701853, -0.410662, 0.816587, 0.5};
Point(153) = {0.188783, -0.483766, 0.0322675, 0.5};
Point(154) = {0.162456, -0.476944, -0.0338253, 0.5};
Point(155) = {-0.501008, -0.252251, 0.54813, 0.5};
Point(156) = {-0.0112373, -0.412879, 0.341782, 0.5};
Point(157) = {0.214447, 0.268547, 1, 0.5};
Point(158) = {-0.628364, -0.184898, 1, 0.5};
Point(159) = {-0.0112373, -0.412879, 0.341782, 0.5};
Point(160) = {1, -0.475101, 0.621964, 0.5};
Point(161) = {0.199671, 0.308167, 0.689383, 0.5};
Point(162) = {1, -0.497958, 1, 0.5};
Point(163) = {-0.701853, -0.410662, 0.816587, 0.5};
Point(164) = {0.0482742, 0.239517, 0.605778, 0.5};
Point(165) = {0.0630063, -0.414893, 0.320111, 0.5};
Point(166) = {-0.775704, -0.418445, 1, 0.5};
Point(167) = {1, 0.122928, 1, 0.5};
Point(168) = {1, 0.135589, 0.893368, 0.5};
Point(169) = {-0.359737, 0.0171427, 0.624441, 0.5};
Point(170) = {-0.501008, -0.252251, 0.54813, 0.5};
Point(171) = {0.382279, -0.74514, 0.157138, 0.5};
Point(172) = {1, -0.497958, 1, 0.5};
Point(173) = {-0.701853, -0.410662, 0.816587, 0.5};
Point(174) = {-0.746113, -1, 1, 0.5};
Point(175) = {0.425122, -1, 0.193789, 0.5};
Point(176) = {1, -1, 1, 0.5};
Point(177) = {0.07187, -0.440488, 0.291741, 0.5};
Point(178) = {1, -0.475101, 0.621964, 0.5};
Point(179) = {-0.0112373, -0.412879, 0.341782, 0.5};
Point(180) = {0.0630063, -0.414893, 0.320111, 0.5};
Point(181) = {-0.91508, -0.551846, 1, 0.5};
Point(182) = {-0.775704, -0.418445, 1, 0.5};
Point(183) = {0.31124, -0.613696, 0.171924, 0.5};
Point(184) = {1, -0.578695, 0.492703, 0.5};
Point(185) = {1, -0.815248, 0.408856, 0.5};
Point(186) = {1, -1, 0.42304, 0.5};
Point(187) = {-0.807934, 0.640375, 1, 0.5};
Point(188) = {0.176466, 0.390373, 0.601271, 0.5};
Point(189) = {-0.695837, 1, 1, 0.5};
Point(190) = {-0.287659, 0.388548, 0.440751, 0.5};
Point(191) = {-0.561824, 0.751117, 0.675362, 0.5};
Point(192) = {0.0184844, 1, 1, 0.5};
Point(193) = {0.214447, 0.268547, 1, 0.5};
Point(194) = {-0.0154241, 0.446258, 0.477542, 0.5};
Point(195) = {-0.359737, 0.0171427, 0.624441, 0.5};
Point(196) = {-0.58903, 1, 0.836129, 0.5};
Point(197) = {0.0854559, 0.733147, 0.662628, 0.5};
Point(198) = {0.0162743, 1, 0.835072, 0.5};
Point(199) = {0.104816, 0.380445, 0.543384, 0.5};
Point(200) = {-0.628364, -0.184898, 1, 0.5};
Point(201) = {0.0482742, 0.239517, 0.605778, 0.5};
Point(202) = {0.199671, 0.308167, 0.689383, 0.5};
Point(203) = {-1, 0.653458, -0.145795, 0.5};
Point(204) = {-0.58903, 1, 0.836129, 0.5};
Point(205) = {-1, 1, -0.168685, 0.5};
Point(206) = {-0.655496, 1, -0.171161, 0.5};
Point(207) = {-1, 0.57197, 1, 0.5};
Point(208) = {-0.807934, 0.640375, 1, 0.5};
Point(209) = {-1, 1, 1, 0.5};
Point(210) = {-0.695837, 1, 1, 0.5};
Point(211) = {-0.561824, 0.751117, 0.675362, 0.5};
Point(212) = {-0.622493, 0.788738, -0.157443, 0.5};
Point(213) = {-1, -0.45262, 0.487966, 0.5};
Point(214) = {-0.287659, 0.388548, 0.440751, 0.5};
Point(215) = {-0.807934, 0.640375, 1, 0.5};
Point(216) = {-0.622493, 0.788738, -0.157443, 0.5};
Point(217) = {-1, -0.588666, 1, 0.5};
Point(218) = {-0.643883, -0.215524, 0.176749, 0.5};
Point(219) = {-1, 0.57197, 1, 0.5};
Point(220) = {-0.501008, -0.252251, 0.54813, 0.5};
Point(221) = {-0.561824, 0.751117, 0.675362, 0.5};
Point(222) = {-0.539294, 0.68034, -0.194837, 0.5};
Point(223) = {-1, 0.465458, -0.193167, 0.5};
Point(224) = {-1, 0.653458, -0.145795, 0.5};
Point(225) = {-1, -0.148114, -0.129338, 0.5};
Point(226) = {-0.470059, 0.592224, -0.182562, 0.5};
Point(227) = {-0.682694, -0.226959, 0.15645, 0.5};
Point(228) = {-0.976209, -0.143759, -0.128723, 0.5};
Point(229) = {-0.701853, -0.410662, 0.816587, 0.5};
Point(230) = {-0.591715, 0.260666, -0.153533, 0.5};
Point(231) = {-0.359737, 0.0171427, 0.624441, 0.5};
Point(232) = {-0.628364, -0.184898, 1, 0.5};
Point(233) = {-0.775704, -0.418445, 1, 0.5};
Point(234) = {-0.91508, -0.551846, 1, 0.5};
Point(235) = {-0.192322, 0.745817, -0.379004, 0.5};
Point(236) = {-0.561824, 0.751117, 0.675362, 0.5};
Point(237) = {-0.622493, 0.788738, -0.157443, 0.5};
Point(238) = {-0.470059, 0.592224, -0.182562, 0.5};
Point(239) = {-0.206639, 0.7484, -0.394819, 0.5};
Point(240) = {0.0162743, 1, 0.835072, 0.5};
Point(241) = {-0.58903, 1, 0.836129, 0.5};
Point(242) = {-0.655496, 1, -0.171161, 0.5};
Point(243) = {-0.0154241, 0.446258, 0.477542, 0.5};
Point(244) = {-0.287659, 0.388548, 0.440751, 0.5};
Point(245) = {0.0854559, 0.733147, 0.662628, 0.5};
Point(246) = {0.145437, 1, 0.68745, 0.5};
Point(247) = {-0.0950308, 1, -0.35912, 0.5};
Point(248) = {-0.539294, 0.68034, -0.194837, 0.5};
Point(249) = {-0.21872, 0.839309, -0.436763, 0.5};
Point(250) = {-0.204434, 1, -0.473607, 0.5};
Point(251) = {-0.137781, 0.748952, -0.322939, 0.5};
Point(252) = {-0.137012, 0.729572, -0.302436, 0.5};
Point(253) = {0.0854559, 0.733147, 0.662628, 0.5};
Point(254) = {0.296108, 0.423124, 0.163075, 0.5};
Point(255) = {-0.137012, 0.729572, -0.302436, 0.5};
Point(256) = {1, 1, 0.153426, 0.5};
Point(257) = {0.176466, 0.390373, 0.601271, 0.5};
Point(258) = {1, 0.528418, 0.475123, 0.5};
Point(259) = {-0.0154241, 0.446258, 0.477542, 0.5};
Point(260) = {1, 1, 0.537577, 0.5};
Point(261) = {-0.0950308, 1, -0.35912, 0.5};
Point(262) = {-0.137781, 0.748952, -0.322939, 0.5};
Point(263) = {0.145437, 1, 0.68745, 0.5};
Point(264) = {0.104816, 0.380445, 0.543384, 0.5};
Point(265) = {1, 0.565449, 0.250689, 0.5};
Point(266) = {1, 0.534218, 0.283313, 0.5};
Point(267) = {0.0630063, -0.414893, 0.320111, 0.5};
Point(268) = {1, 0.147871, 0.0517935, 0.5};
Point(269) = {0.31124, -0.613696, 0.171924, 0.5};
Point(270) = {1, 0.534218, 0.283313, 0.5};
Point(271) = {1, -0.578695, 0.492703, 0.5};
Point(272) = {1, -0.475101, 0.621964, 0.5};
Point(273) = {1, 0.135589, 0.893368, 0.5};
Point(274) = {1, 0.528418, 0.475123, 0.5};
Point(275) = {0.199671, 0.308167, 0.689383, 0.5};
Point(276) = {0.176466, 0.390373, 0.601271, 0.5};
Point(277) = {0.345124, -0.080358, -0.134901, 0.5};
Point(278) = {0.296108, 0.423124, 0.163075, 0.5};
Point(279) = {0.104816, 0.380445, 0.543384, 0.5};
Point(280) = {0.0482742, 0.239517, 0.605778, 0.5};
Point(281) = {0.07187, -0.440488, 0.291741, 0.5};
Point(282) = {0.188783, -0.483766, 0.0322675, 0.5};
Point(283) = {0.176466, 0.390373, 0.601271, 0.5};
Point(284) = {1, 0.528418, 0.475123, 0.5};
Point(285) = {0.0184844, 1, 1, 0.5};
Point(286) = {1, 1, 0.537577, 0.5};
Point(287) = {0.145437, 1, 0.68745, 0.5};
Point(288) = {0.214447, 0.268547, 1, 0.5};
Point(289) = {1, 0.122928, 1, 0.5};
Point(290) = {1, 1, 1, 0.5};
Point(291) = {0.0854559, 0.733147, 0.662628, 0.5};
Point(292) = {0.0162743, 1, 0.835072, 0.5};
Point(293) = {0.199671, 0.308167, 0.689383, 0.5};
Point(294) = {1, 0.135589, 0.893368, 0.5};
Point(295) = {-0.591715, 0.260666, -0.153533, 0.5};
Point(296) = {-0.203233, 0.741086, -0.400045, 0.5};
Point(297) = {0.188783, -0.483766, 0.0322675, 0.5};
Point(298) = {0.07187, -0.440488, 0.291741, 0.5};
Point(299) = {-0.287659, 0.388548, 0.440751, 0.5};
Point(300) = {0.0630063, -0.414893, 0.320111, 0.5};
Point(301) = {-0.359737, 0.0171427, 0.624441, 0.5};
Point(302) = {0.0482742, 0.239517, 0.605778, 0.5};
Point(303) = {-0.470059, 0.592224, -0.182562, 0.5};
Point(304) = {0.345124, -0.080358, -0.134901, 0.5};
Point(305) = {0.104816, 0.380445, 0.543384, 0.5};
Point(306) = {0.296108, 0.423124, 0.163075, 0.5};
Point(307) = {-0.137012, 0.729572, -0.302436, 0.5};
Point(308) = {-0.0154241, 0.446258, 0.477542, 0.5};
Point(309) = {-0.206639, 0.7484, -0.394819, 0.5};
Point(310) = {-0.192322, 0.745817, -0.379004, 0.5};
Point(311) = {-0.501008, -0.252251, 0.54813, 0.5};
Point(312) = {-0.0112373, -0.412879, 0.341782, 0.5};
Point(313) = {-0.643883, -0.215524, 0.176749, 0.5};
Point(314) = {0.248408, -0.108274, -0.310917, 0.5};
Point(315) = {-0.157402, 0.496972, -0.509125, 0.5};
Point(316) = {0.162456, -0.476944, -0.0338253, 0.5};

Line(1) = {2, 8};
Line(2) = {8, 7};
Line(3) = {7, 3};
Line(4) = {3, 10};
Line(5) = {10, 4};
Line(6) = {4, 2};

Line Loop(1) = {1, 2, 3, 4, 5, 6};
Plane Surface(1) = {1};

Line(7) = {2, 1};
Line(8) = {1, 8};
Line(9) = {8, 2};

Line Loop(2) = {7, 8, 9};
Plane Surface(2) = {2};

Line(10) = {2, 4};
Line(11) = {4, 9};
Line(12) = {9, 12};
Line(13) = {12, 6};
Line(14) = {6, 1};
Line(15) = {1, 2};

Line Loop(3) = {10, 11, 12, 13, 14, 15};
Plane Surface(3) = {3};

Line(16) = {3, 7};
Line(17) = {7, 6};
Line(18) = {6, 12};
Line(19) = {12, 5};
Line(20) = {5, 3};

Line Loop(4) = {16, 17, 18, 19, 20};
Plane Surface(4) = {4};

Line(21) = {3, 5};
Line(22) = {5, 11};
Line(23) = {11, 10};
Line(24) = {10, 3};

Line Loop(5) = {21, 22, 23, 24};
Plane Surface(5) = {5};

Line(25) = {4, 10};
Line(26) = {10, 11};
Line(27) = {11, 9};
Line(28) = {9, 4};

Line Loop(6) = {25, 26, 27, 28};
Plane Surface(6) = {6};

Line(29) = {5, 12};
Line(30) = {12, 9};
Line(31) = {9, 11};
Line(32) = {11, 5};

Line Loop(7) = {29, 30, 31, 32};
Plane Surface(7) = {7};

Line(33) = {6, 7};
Line(34) = {7, 8};
Line(35) = {8, 1};
Line(36) = {1, 6};

Line Loop(8) = {33, 34, 35, 36};
Plane Surface(8) = {8};

Surface Loop(1) = {1, 2, 3, 4, 5, 6, 7, 8};
Volume(1) = {1};
Physical Volume(1) = {1};

Line(37) = {14, 21};
Line(38) = {21, 26};
Line(39) = {26, 25};
Line(40) = {25, 18};
Line(41) = {18, 14};

Line Loop(9) = {37, 38, 39, 40, 41};
Plane Surface(9) = {9};

Line(42) = {14, 13};
Line(43) = {13, 16};
Line(44) = {16, 22};
Line(45) = {22, 21};
Line(46) = {21, 14};

Line Loop(10) = {42, 43, 44, 45, 46};
Plane Surface(10) = {10};

Line(47) = {14, 18};
Line(48) = {18, 27};
Line(49) = {27, 15};
Line(50) = {15, 13};
Line(51) = {13, 14};

Line Loop(11) = {47, 48, 49, 50, 51};
Plane Surface(11) = {11};

Line(52) = {15, 19};
Line(53) = {19, 20};
Line(54) = {20, 16};
Line(55) = {16, 13};
Line(56) = {13, 15};

Line Loop(12) = {52, 53, 54, 55, 56};
Plane Surface(12) = {12};

Line(57) = {15, 27};
Line(58) = {27, 19};
Line(59) = {19, 15};

Line Loop(13) = {57, 58, 59};
Plane Surface(13) = {13};

Line(60) = {16, 20};
Line(61) = {20, 23};
Line(62) = {23, 17};
Line(63) = {17, 22};
Line(64) = {22, 16};

Line Loop(14) = {60, 61, 62, 63, 64};
Plane Surface(14) = {14};

Line(65) = {17, 28};
Line(66) = {28, 26};
Line(67) = {26, 21};
Line(68) = {21, 22};
Line(69) = {22, 17};

Line Loop(15) = {65, 66, 67, 68, 69};
Plane Surface(15) = {15};

Line(70) = {17, 23};
Line(71) = {23, 24};
Line(72) = {24, 28};
Line(73) = {28, 17};

Line Loop(16) = {70, 71, 72, 73};
Plane Surface(16) = {16};

Line(74) = {18, 25};
Line(75) = {25, 24};
Line(76) = {24, 23};
Line(77) = {23, 20};
Line(78) = {20, 19};
Line(79) = {19, 27};
Line(80) = {27, 18};

Line Loop(17) = {74, 75, 76, 77, 78, 79, 80};
Plane Surface(17) = {17};

Line(81) = {24, 25};
Line(82) = {25, 26};
Line(83) = {26, 28};
Line(84) = {28, 24};

Line Loop(18) = {81, 82, 83, 84};
Plane Surface(18) = {18};

Surface Loop(2) = {9, 10, 11, 12, 13, 14, 15, 16, 17, 18};
Volume(2) = {2};
Physical Volume(2) = {2};

Line(85) = {30, 32};
Line(86) = {32, 36};
Line(87) = {36, 37};
Line(88) = {37, 30};

Line Loop(19) = {85, 86, 87, 88};
Plane Surface(19) = {19};

Line(89) = {30, 31};
Line(90) = {31, 39};
Line(91) = {39, 40};
Line(92) = {40, 35};
Line(93) = {35, 29};
Line(94) = {29, 32};
Line(95) = {32, 30};

Line Loop(20) = {89, 90, 91, 92, 93, 94, 95};
Plane Surface(20) = {20};

Line(96) = {30, 37};
Line(97) = {37, 38};
Line(98) = {38, 31};
Line(99) = {31, 30};

Line Loop(21) = {96, 97, 98, 99};
Plane Surface(21) = {21};

Line(100) = {31, 38};
Line(101) = {38, 41};
Line(102) = {41, 33};
Line(103) = {33, 39};
Line(104) = {39, 31};

Line Loop(22) = {100, 101, 102, 103, 104};
Plane Surface(22) = {22};

Line(105) = {32, 29};
Line(106) = {29, 42};
Line(107) = {42, 36};
Line(108) = {36, 32};

Line Loop(23) = {105, 106, 107, 108};
Plane Surface(23) = {23};

Line(109) = {33, 34};
Line(110) = {34, 40};
Line(111) = {40, 39};
Line(112) = {39, 33};

Line Loop(24) = {109, 110, 111, 112};
Plane Surface(24) = {24};

Line(113) = {33, 41};
Line(114) = {41, 42};
Line(115) = {42, 29};
Line(116) = {29, 35};
Line(117) = {35, 34};
Line(118) = {34, 33};

Line Loop(25) = {113, 114, 115, 116, 117, 118};
Plane Surface(25) = {25};

Line(119) = {34, 35};
Line(120) = {35, 40};
Line(121) = {40, 34};

Line Loop(26) = {119, 120, 121};
Plane Surface(26) = {26};

Line(122) = {36, 42};
Line(123) = {42, 41};
Line(124) = {41, 38};
Line(125) = {38, 37};
Line(126) = {37, 36};

Line Loop(27) = {122, 123, 124, 125, 126};
Plane Surface(27) = {27};

Surface Loop(3) = {19, 20, 21, 22, 23, 24, 25, 26, 27};
Volume(3) = {3};
Physical Volume(3) = {3};

Line(127) = {44, 59};
Line(128) = {59, 60};
Line(129) = {60, 56};
Line(130) = {56, 44};

Line Loop(28) = {127, 128, 129, 130};
Plane Surface(28) = {28};

Line(131) = {44, 54};
Line(132) = {54, 55};
Line(133) = {55, 47};
Line(134) = {47, 59};
Line(135) = {59, 44};

Line Loop(29) = {131, 132, 133, 134, 135};
Plane Surface(29) = {29};

Line(136) = {44, 56};
Line(137) = {56, 43};
Line(138) = {43, 46};
Line(139) = {46, 45};
Line(140) = {45, 54};
Line(141) = {54, 44};

Line Loop(30) = {136, 137, 138, 139, 140, 141};
Plane Surface(30) = {30};

Line(142) = {45, 51};
Line(143) = {51, 49};
Line(144) = {49, 53};
Line(145) = {53, 55};
Line(146) = {55, 54};
Line(147) = {54, 45};

Line Loop(31) = {142, 143, 144, 145, 146, 147};
Plane Surface(31) = {31};

Line(148) = {45, 46};
Line(149) = {46, 51};
Line(150) = {51, 45};

Line Loop(32) = {148, 149, 150};
Plane Surface(32) = {32};

Line(151) = {46, 43};
Line(152) = {43, 48};
Line(153) = {48, 50};
Line(154) = {50, 49};
Line(155) = {49, 51};
Line(156) = {51, 46};

Line Loop(33) = {151, 152, 153, 154, 155, 156};
Plane Surface(33) = {33};

Line(157) = {47, 52};
Line(158) = {52, 57};
Line(159) = {57, 58};
Line(160) = {58, 60};
Line(161) = {60, 59};
Line(162) = {59, 47};

Line Loop(34) = {157, 158, 159, 160, 161, 162};
Plane Surface(34) = {34};

Line(163) = {47, 55};
Line(164) = {55, 53};
Line(165) = {53, 52};
Line(166) = {52, 47};

Line Loop(35) = {163, 164, 165, 166};
Plane Surface(35) = {35};

Line(167) = {48, 58};
Line(168) = {58, 57};
Line(169) = {57, 50};
Line(170) = {50, 48};

Line Loop(36) = {167, 168, 169, 170};
Plane Surface(36) = {36};

Line(171) = {48, 43};
Line(172) = {43, 56};
Line(173) = {56, 60};
Line(174) = {60, 58};
Line(175) = {58, 48};

Line Loop(37) = {171, 172, 173, 174, 175};
Plane Surface(37) = {37};

Line(176) = {49, 50};
Line(177) = {50, 57};
Line(178) = {57, 52};
Line(179) = {52, 53};
Line(180) = {53, 49};

Line Loop(38) = {176, 177, 178, 179, 180};
Plane Surface(38) = {38};

Surface Loop(4) = {28, 29, 30, 31, 32, 33, 34, 35, 36, 37, 38};
Volume(4) = {4};
Physical Volume(4) = {4};

Line(181) = {62, 63};
Line(182) = {63, 67};
Line(183) = {67, 69};
Line(184) = {69, 62};

Line Loop(39) = {181, 182, 183, 184};
Plane Surface(39) = {39};

Line(185) = {62, 66};
Line(186) = {66, 64};
Line(187) = {64, 63};
Line(188) = {63, 62};

Line Loop(40) = {185, 186, 187, 188};
Plane Surface(40) = {40};

Line(189) = {62, 69};
Line(190) = {69, 61};
Line(191) = {61, 68};
Line(192) = {68, 66};
Line(193) = {66, 62};

Line Loop(41) = {189, 190, 191, 192, 193};
Plane Surface(41) = {41};

Line(194) = {63, 64};
Line(195) = {64, 65};
Line(196) = {65, 70};
Line(197) = {70, 67};
Line(198) = {67, 63};

Line Loop(42) = {194, 195, 196, 197, 198};
Plane Surface(42) = {42};

Line(199) = {64, 66};
Line(200) = {66, 68};
Line(201) = {68, 65};
Line(202) = {65, 64};

Line Loop(43) = {199, 200, 201, 202};
Plane Surface(43) = {43};

Line(203) = {65, 68};
Line(204) = {68, 61};
Line(205) = {61, 70};
Line(206) = {70, 65};

Line Loop(44) = {203, 204, 205, 206};
Plane Surface(44) = {44};

Line(207) = {67, 70};
Line(208) = {70, 61};
Line(209) = {61, 69};
Line(210) = {69, 67};

Line Loop(45) = {207, 208, 209, 210};
Plane Surface(45) = {45};

Surface Loop(5) = {39, 40, 41, 42, 43, 44, 45};
Volume(5) = {5};
Physical Volume(5) = {5};

Line(211) = {72, 75};
Line(212) = {75, 84};
Line(213) = {84, 82};
Line(214) = {82, 87};
Line(215) = {87, 88};
Line(216) = {88, 72};

Line Loop(46) = {211, 212, 213, 214, 215, 216};
Plane Surface(46) = {46};

Line(217) = {72, 80};
Line(218) = {80, 74};
Line(219) = {74, 75};
Line(220) = {75, 72};

Line Loop(47) = {217, 218, 219, 220};
Plane Surface(47) = {47};

Line(221) = {72, 88};
Line(222) = {88, 85};
Line(223) = {85, 81};
Line(224) = {81, 78};
Line(225) = {78, 79};
Line(226) = {79, 80};
Line(227) = {80, 72};

Line Loop(48) = {221, 222, 223, 224, 225, 226, 227};
Plane Surface(48) = {48};

Line(228) = {73, 77};
Line(229) = {77, 83};
Line(230) = {83, 82};
Line(231) = {82, 84};
Line(232) = {84, 73};

Line Loop(49) = {228, 229, 230, 231, 232};
Plane Surface(49) = {49};

Line(233) = {73, 71};
Line(234) = {71, 79};
Line(235) = {79, 78};
Line(236) = {78, 77};
Line(237) = {77, 73};

Line Loop(50) = {233, 234, 235, 236, 237};
Plane Surface(50) = {50};

Line(238) = {73, 84};
Line(239) = {84, 75};
Line(240) = {75, 74};
Line(241) = {74, 71};
Line(242) = {71, 73};

Line Loop(51) = {238, 239, 240, 241, 242};
Plane Surface(51) = {51};

Line(243) = {74, 80};
Line(244) = {80, 79};
Line(245) = {79, 71};
Line(246) = {71, 74};

Line Loop(52) = {243, 244, 245, 246};
Plane Surface(52) = {52};

Line(247) = {76, 86};
Line(248) = {86, 85};
Line(249) = {85, 88};
Line(250) = {88, 87};
Line(251) = {87, 76};

Line Loop(53) = {247, 248, 249, 250, 251};
Plane Surface(53) = {53};

Line(252) = {76, 83};
Line(253) = {83, 77};
Line(254) = {77, 78};
Line(255) = {78, 81};
Line(256) = {81, 86};
Line(257) = {86, 76};

Line Loop(54) = {252, 253, 254, 255, 256, 257};
Plane Surface(54) = {54};

Line(258) = {76, 87};
Line(259) = {87, 82};
Line(260) = {82, 83};
Line(261) = {83, 76};

Line Loop(55) = {258, 259, 260, 261};
Plane Surface(55) = {55};

Line(262) = {81, 85};
Line(263) = {85, 86};
Line(264) = {86, 81};

Line Loop(56) = {262, 263, 264};
Plane Surface(56) = {56};

Surface Loop(6) = {46, 47, 48, 49, 50, 51, 52, 53, 54, 55, 56};
Volume(6) = {6};
Physical Volume(6) = {6};

Line(265) = {90, 100};
Line(266) = {100, 99};
Line(267) = {99, 89};
Line(268) = {89, 90};

Line Loop(57) = {265, 266, 267, 268};
Plane Surface(57) = {57};

Line(269) = {90, 91};
Line(270) = {91, 92};
Line(271) = {92, 100};
Line(272) = {100, 90};

Line Loop(58) = {269, 270, 271, 272};
Plane Surface(58) = {58};

Line(273) = {90, 89};
Line(274) = {89, 94};
Line(275) = {94, 93};
Line(276) = {93, 91};
Line(277) = {91, 90};

Line Loop(59) = {273, 274, 275, 276, 277};
Plane Surface(59) = {59};

Line(278) = {91, 93};
Line(279) = {93, 96};
Line(280) = {96, 98};
Line(281) = {98, 92};
Line(282) = {92, 91};

Line Loop(60) = {278, 279, 280, 281, 282};
Plane Surface(60) = {60};

Line(283) = {92, 98};
Line(284) = {98, 97};
Line(285) = {97, 99};
Line(286) = {99, 100};
Line(287) = {100, 92};

Line Loop(61) = {283, 284, 285, 286, 287};
Plane Surface(61) = {61};

Line(288) = {93, 94};
Line(289) = {94, 95};
Line(290) = {95, 96};
Line(291) = {96, 93};

Line Loop(62) = {288, 289, 290, 291};
Plane Surface(62) = {62};

Line(292) = {94, 89};
Line(293) = {89, 99};
Line(294) = {99, 97};
Line(295) = {97, 95};
Line(296) = {95, 94};

Line Loop(63) = {292, 293, 294, 295, 296};
Plane Surface(63) = {63};

Line(297) = {95, 97};
Line(298) = {97, 98};
Line(299) = {98, 96};
Line(300) = {96, 95};

Line Loop(64) = {297, 298, 299, 300};
Plane Surface(64) = {64};

Surface Loop(7) = {57, 58, 59, 60, 61, 62, 63, 64};
Volume(7) = {7};
Physical Volume(7) = {7};

Line(301) = {102, 114};
Line(302) = {114, 113};
Line(303) = {113, 102};

Line Loop(65) = {301, 302, 303};
Plane Surface(65) = {65};

Line(304) = {102, 105};
Line(305) = {105, 106};
Line(306) = {106, 104};
Line(307) = {104, 114};
Line(308) = {114, 102};

Line Loop(66) = {304, 305, 306, 307, 308};
Plane Surface(66) = {66};

Line(309) = {102, 113};
Line(310) = {113, 108};
Line(311) = {108, 117};
Line(312) = {117, 109};
Line(313) = {109, 116};
Line(314) = {116, 110};
Line(315) = {110, 105};
Line(316) = {105, 102};

Line Loop(67) = {309, 310, 311, 312, 313, 314, 315, 316};
Plane Surface(67) = {67};

Line(317) = {103, 101};
Line(318) = {101, 111};
Line(319) = {111, 112};
Line(320) = {112, 103};

Line Loop(68) = {317, 318, 319, 320};
Plane Surface(68) = {68};

Line(321) = {103, 118};
Line(322) = {118, 108};
Line(323) = {108, 113};
Line(324) = {113, 114};
Line(325) = {114, 104};
Line(326) = {104, 101};
Line(327) = {101, 103};

Line Loop(69) = {321, 322, 323, 324, 325, 326, 327};
Plane Surface(69) = {69};

Line(328) = {103, 112};
Line(329) = {112, 115};
Line(330) = {115, 109};
Line(331) = {109, 117};
Line(332) = {117, 118};
Line(333) = {118, 103};

Line Loop(70) = {328, 329, 330, 331, 332, 333};
Plane Surface(70) = {70};

Line(334) = {104, 106};
Line(335) = {106, 107};
Line(336) = {107, 111};
Line(337) = {111, 101};
Line(338) = {101, 104};

Line Loop(71) = {334, 335, 336, 337, 338};
Plane Surface(71) = {71};

Line(339) = {105, 110};
Line(340) = {110, 107};
Line(341) = {107, 106};
Line(342) = {106, 105};

Line Loop(72) = {339, 340, 341, 342};
Plane Surface(72) = {72};

Line(343) = {107, 110};
Line(344) = {110, 116};
Line(345) = {116, 115};
Line(346) = {115, 112};
Line(347) = {112, 111};
Line(348) = {111, 107};

Line Loop(73) = {343, 344, 345, 346, 347, 348};
Plane Surface(73) = {73};

Line(349) = {108, 118};
Line(350) = {118, 117};
Line(351) = {117, 108};

Line Loop(74) = {349, 350, 351};
Plane Surface(74) = {74};

Line(352) = {109, 115};
Line(353) = {115, 116};
Line(354) = {116, 109};

Line Loop(75) = {352, 353, 354};
Plane Surface(75) = {75};

Surface Loop(8) = {65, 66, 67, 68, 69, 70, 71, 72, 73, 74, 75};
Volume(8) = {8};
Physical Volume(8) = {8};

Line(355) = {120, 119};
Line(356) = {119, 128};
Line(357) = {128, 124};
Line(358) = {124, 123};
Line(359) = {123, 127};
Line(360) = {127, 120};

Line Loop(76) = {355, 356, 357, 358, 359, 360};
Plane Surface(76) = {76};

Line(361) = {120, 134};
Line(362) = {134, 119};
Line(363) = {119, 120};

Line Loop(77) = {361, 362, 363};
Plane Surface(77) = {77};

Line(364) = {120, 127};
Line(365) = {127, 126};
Line(366) = {126, 122};
Line(367) = {122, 131};
Line(368) = {131, 130};
Line(369) = {130, 133};
Line(370) = {133, 134};
Line(371) = {134, 120};

Line Loop(78) = {364, 365, 366, 367, 368, 369, 370, 371};
Plane Surface(78) = {78};

Line(372) = {121, 123};
Line(373) = {123, 124};
Line(374) = {124, 125};
Line(375) = {125, 121};

Line Loop(79) = {372, 373, 374, 375};
Plane Surface(79) = {79};

Line(376) = {121, 126};
Line(377) = {126, 127};
Line(378) = {127, 123};
Line(379) = {123, 121};

Line Loop(80) = {376, 377, 378, 379};
Plane Surface(80) = {80};

Line(380) = {121, 125};
Line(381) = {125, 132};
Line(382) = {132, 122};
Line(383) = {122, 126};
Line(384) = {126, 121};

Line Loop(81) = {380, 381, 382, 383, 384};
Plane Surface(81) = {81};

Line(385) = {122, 132};
Line(386) = {132, 131};
Line(387) = {131, 122};

Line Loop(82) = {385, 386, 387};
Plane Surface(82) = {82};

Line(388) = {124, 128};
Line(389) = {128, 129};
Line(390) = {129, 130};
Line(391) = {130, 131};
Line(392) = {131, 132};
Line(393) = {132, 125};
Line(394) = {125, 124};

Line Loop(83) = {388, 389, 390, 391, 392, 393, 394};
Plane Surface(83) = {83};

Line(395) = {128, 119};
Line(396) = {119, 134};
Line(397) = {134, 133};
Line(398) = {133, 129};
Line(399) = {129, 128};

Line Loop(84) = {395, 396, 397, 398, 399};
Plane Surface(84) = {84};

Line(400) = {129, 133};
Line(401) = {133, 130};
Line(402) = {130, 129};

Line Loop(85) = {400, 401, 402};
Plane Surface(85) = {85};

Surface Loop(9) = {76, 77, 78, 79, 80, 81, 82, 83, 84, 85};
Volume(9) = {9};
Physical Volume(9) = {9};

Line(403) = {136, 142};
Line(404) = {142, 148};
Line(405) = {148, 145};
Line(406) = {145, 155};
Line(407) = {155, 152};
Line(408) = {152, 149};
Line(409) = {149, 136};

Line Loop(86) = {403, 404, 405, 406, 407, 408, 409};
Plane Surface(86) = {86};

Line(410) = {136, 139};
Line(411) = {139, 141};
Line(412) = {141, 142};
Line(413) = {142, 136};

Line Loop(87) = {410, 411, 412, 413};
Plane Surface(87) = {87};

Line(414) = {136, 149};
Line(415) = {149, 150};
Line(416) = {150, 139};
Line(417) = {139, 136};

Line Loop(88) = {414, 415, 416, 417};
Plane Surface(88) = {88};

Line(418) = {137, 135};
Line(419) = {135, 146};
Line(420) = {146, 144};
Line(421) = {144, 143};
Line(422) = {143, 137};

Line Loop(89) = {418, 419, 420, 421, 422};
Plane Surface(89) = {89};

Line(423) = {137, 148};
Line(424) = {148, 142};
Line(425) = {142, 141};
Line(426) = {141, 135};
Line(427) = {135, 137};

Line Loop(90) = {423, 424, 425, 426, 427};
Plane Surface(90) = {90};

Line(428) = {137, 143};
Line(429) = {143, 154};
Line(430) = {154, 145};
Line(431) = {145, 148};
Line(432) = {148, 137};

Line Loop(91) = {428, 429, 430, 431, 432};
Plane Surface(91) = {91};

Line(433) = {138, 150};
Line(434) = {150, 149};
Line(435) = {149, 152};
Line(436) = {152, 156};
Line(437) = {156, 151};
Line(438) = {151, 147};
Line(439) = {147, 140};
Line(440) = {140, 138};

Line Loop(92) = {433, 434, 435, 436, 437, 438, 439, 440};
Plane Surface(92) = {92};

Line(441) = {138, 146};
Line(442) = {146, 135};
Line(443) = {135, 141};
Line(444) = {141, 139};
Line(445) = {139, 150};
Line(446) = {150, 138};

Line Loop(93) = {441, 442, 443, 444, 445, 446};
Plane Surface(93) = {93};

Line(447) = {138, 140};
Line(448) = {140, 144};
Line(449) = {144, 146};
Line(450) = {146, 138};

Line Loop(94) = {447, 448, 449, 450};
Plane Surface(94) = {94};

Line(451) = {140, 147};
Line(452) = {147, 153};
Line(453) = {153, 154};
Line(454) = {154, 143};
Line(455) = {143, 144};
Line(456) = {144, 140};

Line Loop(95) = {451, 452, 453, 454, 455, 456};
Plane Surface(95) = {95};

Line(457) = {145, 154};
Line(458) = {154, 153};
Line(459) = {153, 151};
Line(460) = {151, 156};
Line(461) = {156, 155};
Line(462) = {155, 145};

Line Loop(96) = {457, 458, 459, 460, 461, 462};
Plane Surface(96) = {96};

Line(463) = {147, 151};
Line(464) = {151, 153};
Line(465) = {153, 147};

Line Loop(97) = {463, 464, 465};
Plane Surface(97) = {97};

Line(466) = {152, 155};
Line(467) = {155, 156};
Line(468) = {156, 152};

Line Loop(98) = {466, 467, 468};
Plane Surface(98) = {98};

Surface Loop(10) = {86, 87, 88, 89, 90, 91, 92, 93, 94, 95, 96, 97, 98};
Volume(10) = {10};
Physical Volume(10) = {10};

Line(469) = {158, 166};
Line(470) = {166, 163};
Line(471) = {163, 170};
Line(472) = {170, 169};
Line(473) = {169, 158};

Line Loop(99) = {469, 470, 471, 472, 473};
Plane Surface(99) = {99};

Line(474) = {158, 157};
Line(475) = {157, 167};
Line(476) = {167, 162};
Line(477) = {162, 166};
Line(478) = {166, 158};

Line Loop(100) = {474, 475, 476, 477, 478};
Plane Surface(100) = {100};

Line(479) = {158, 169};
Line(480) = {169, 164};
Line(481) = {164, 161};
Line(482) = {161, 157};
Line(483) = {157, 158};

Line Loop(101) = {479, 480, 481, 482, 483};
Plane Surface(101) = {101};

Line(484) = {159, 165};
Line(485) = {165, 164};
Line(486) = {164, 169};
Line(487) = {169, 170};
Line(488) = {170, 159};

Line Loop(102) = {484, 485, 486, 487, 488};
Plane Surface(102) = {102};

Line(489) = {159, 163};
Line(490) = {163, 166};
Line(491) = {166, 162};
Line(492) = {162, 160};
Line(493) = {160, 165};
Line(494) = {165, 159};

Line Loop(103) = {489, 490, 491, 492, 493, 494};
Plane Surface(103) = {103};

Line(495) = {159, 170};
Line(496) = {170, 163};
Line(497) = {163, 159};

Line Loop(104) = {495, 496, 497};
Plane Surface(104) = {104};

Line(498) = {160, 168};
Line(499) = {168, 161};
Line(500) = {161, 164};
Line(501) = {164, 165};
Line(502) = {165, 160};

Line Loop(105) = {498, 499, 500, 501, 502};
Plane Surface(105) = {105};

Line(503) = {160, 162};
Line(504) = {162, 167};
Line(505) = {167, 168};
Line(506) = {168, 160};

Line Loop(106) = {503, 504, 505, 506};
Plane Surface(106) = {106};

Line(507) = {161, 168};
Line(508) = {168, 167};
Line(509) = {167, 157};
Line(510) = {157, 161};

Line Loop(107) = {507, 508, 509, 510};
Plane Surface(107) = {107};

Surface Loop(11) = {99, 100, 101, 102, 103, 104, 105, 106, 107};
Volume(11) = {11};
Physical Volume(11) = {11};

Line(511) = {172, 182};
Line(512) = {182, 173};
Line(513) = {173, 179};
Line(514) = {179, 180};
Line(515) = {180, 178};
Line(516) = {178, 172};

Line Loop(108) = {511, 512, 513, 514, 515, 516};
Plane Surface(108) = {108};

Line(517) = {172, 176};
Line(518) = {176, 174};
Line(519) = {174, 181};
Line(520) = {181, 182};
Line(521) = {182, 172};

Line Loop(109) = {517, 518, 519, 520, 521};
Plane Surface(109) = {109};

Line(522) = {172, 178};
Line(523) = {178, 184};
Line(524) = {184, 185};
Line(525) = {185, 186};
Line(526) = {186, 176};
Line(527) = {176, 172};

Line Loop(110) = {522, 523, 524, 525, 526, 527};
Plane Surface(110) = {110};

Line(528) = {173, 182};
Line(529) = {182, 181};
Line(530) = {181, 173};

Line Loop(111) = {528, 529, 530};
Plane Surface(111) = {111};

Line(531) = {173, 181};
Line(532) = {181, 174};
Line(533) = {174, 175};
Line(534) = {175, 171};
Line(535) = {171, 183};
Line(536) = {183, 177};
Line(537) = {177, 179};
Line(538) = {179, 173};

Line Loop(112) = {531, 532, 533, 534, 535, 536, 537, 538};
Plane Surface(112) = {112};

Line(539) = {174, 176};
Line(540) = {176, 186};
Line(541) = {186, 175};
Line(542) = {175, 174};

Line Loop(113) = {539, 540, 541, 542};
Plane Surface(113) = {113};

Line(543) = {175, 186};
Line(544) = {186, 185};
Line(545) = {185, 171};
Line(546) = {171, 175};

Line Loop(114) = {543, 544, 545, 546};
Plane Surface(114) = {114};

Line(547) = {177, 180};
Line(548) = {180, 179};
Line(549) = {179, 177};

Line Loop(115) = {547, 548, 549};
Plane Surface(115) = {115};

Line(550) = {177, 183};
Line(551) = {183, 184};
Line(552) = {184, 178};
Line(553) = {178, 180};
Line(554) = {180, 177};

Line Loop(116) = {550, 551, 552, 553, 554};
Plane Surface(116) = {116};

Line(555) = {183, 171};
Line(556) = {171, 185};
Line(557) = {185, 184};
Line(558) = {184, 183};

Line Loop(117) = {555, 556, 557, 558};
Plane Surface(117) = {117};

Surface Loop(12) = {108, 109, 110, 111, 112, 113, 114, 115, 116, 117};
Volume(12) = {12};
Physical Volume(12) = {12};

Line(559) = {188, 202};
Line(560) = {202, 193};
Line(561) = {193, 192};
Line(562) = {192, 198};
Line(563) = {198, 197};
Line(564) = {197, 188};

Line Loop(118) = {559, 560, 561, 562, 563, 564};
Plane Surface(118) = {118};

Line(565) = {188, 199};
Line(566) = {199, 201};
Line(567) = {201, 202};
Line(568) = {202, 188};

Line Loop(119) = {565, 566, 567, 568};
Plane Surface(119) = {119};

Line(569) = {188, 197};
Line(570) = {197, 194};
Line(571) = {194, 199};
Line(572) = {199, 188};

Line Loop(120) = {569, 570, 571, 572};
Plane Surface(120) = {120};

Line(573) = {189, 187};
Line(574) = {187, 191};
Line(575) = {191, 196};
Line(576) = {196, 189};

Line Loop(121) = {573, 574, 575, 576};
Plane Surface(121) = {121};

Line(577) = {189, 192};
Line(578) = {192, 193};
Line(579) = {193, 200};
Line(580) = {200, 187};
Line(581) = {187, 189};

Line Loop(122) = {577, 578, 579, 580, 581};
Plane Surface(122) = {122};

Line(582) = {189, 196};
Line(583) = {196, 198};
Line(584) = {198, 192};
Line(585) = {192, 189};

Line Loop(123) = {582, 583, 584, 585};
Plane Surface(123) = {123};

Line(586) = {190, 195};
Line(587) = {195, 201};
Line(588) = {201, 199};
Line(589) = {199, 194};
Line(590) = {194, 190};

Line Loop(124) = {586, 587, 588, 589, 590};
Plane Surface(124) = {124};

Line(591) = {190, 191};
Line(592) = {191, 187};
Line(593) = {187, 200};
Line(594) = {200, 195};
Line(595) = {195, 190};

Line Loop(125) = {591, 592, 593, 594, 595};
Plane Surface(125) = {125};

Line(596) = {190, 194};
Line(597) = {194, 197};
Line(598) = {197, 198};
Line(599) = {198, 196};
Line(600) = {196, 191};
Line(601) = {191, 190};

Line Loop(126) = {596, 597, 598, 599, 600, 601};
Plane Surface(126) = {126};

Line(602) = {193, 202};
Line(603) = {202, 201};
Line(604) = {201, 195};
Line(605) = {195, 200};
Line(606) = {200, 193};

Line Loop(127) = {602, 603, 604, 605, 606};
Plane Surface(127) = {127};

Surface Loop(13) = {118, 119, 120, 121, 122, 123, 124, 125, 126, 127};
Volume(13) = {13};
Physical Volume(13) = {13};

Line(607) = {204, 206};
Line(608) = {206, 212};
Line(609) = {212, 211};
Line(610) = {211, 204};

Line Loop(128) = {607, 608, 609, 610};
Plane Surface(128) = {128};

Line(611) = {204, 210};
Line(612) = {210, 209};
Line(613) = {209, 205};
Line(614) = {205, 206};
Line(615) = {206, 204};

Line Loop(129) = {611, 612, 613, 614, 615};
Plane Surface(129) = {129};

Line(616) = {204, 211};
Line(617) = {211, 208};
Line(618) = {208, 210};
Line(619) = {210, 204};

Line Loop(130) = {616, 617, 618, 619};
Plane Surface(130) = {130};

Line(620) = {205, 203};
Line(621) = {203, 212};
Line(622) = {212, 206};
Line(623) = {206, 205};

Line Loop(131) = {620, 621, 622, 623};
Plane Surface(131) = {131};

Line(624) = {205, 209};
Line(625) = {209, 207};
Line(626) = {207, 203};
Line(627) = {203, 205};

Line Loop(132) = {624, 625, 626, 627};
Plane Surface(132) = {132};

Line(628) = {207, 208};
Line(629) = {208, 211};
Line(630) = {211, 212};
Line(631) = {212, 203};
Line(632) = {203, 207};

Line Loop(133) = {628, 629, 630, 631, 632};
Plane Surface(133) = {133};

Line(633) = {207, 209};
Line(634) = {209, 210};
Line(635) = {210, 208};
Line(636) = {208, 207};

Line Loop(134) = {633, 634, 635, 636};
Plane Surface(134) = {134};

Surface Loop(14) = {128, 129, 130, 131, 132, 133, 134};
Volume(14) = {14};
Physical Volume(14) = {14};

Line(637) = {214, 226};
Line(638) = {226, 230};
Line(639) = {230, 218};
Line(640) = {218, 220};
Line(641) = {220, 231};
Line(642) = {231, 214};

Line Loop(135) = {637, 638, 639, 640, 641, 642};
Plane Surface(135) = {135};

Line(643) = {214, 221};
Line(644) = {221, 216};
Line(645) = {216, 222};
Line(646) = {222, 226};
Line(647) = {226, 214};

Line Loop(136) = {643, 644, 645, 646, 647};
Plane Surface(136) = {136};

Line(648) = {214, 231};
Line(649) = {231, 232};
Line(650) = {232, 215};
Line(651) = {215, 221};
Line(652) = {221, 214};

Line Loop(137) = {648, 649, 650, 651, 652};
Plane Surface(137) = {137};

Line(653) = {215, 219};
Line(654) = {219, 224};
Line(655) = {224, 216};
Line(656) = {216, 221};
Line(657) = {221, 215};

Line Loop(138) = {653, 654, 655, 656, 657};
Plane Surface(138) = {138};

Line(658) = {215, 232};
Line(659) = {232, 233};
Line(660) = {233, 234};
Line(661) = {234, 217};
Line(662) = {217, 219};
Line(663) = {219, 215};

Line Loop(139) = {658, 659, 660, 661, 662, 663};
Plane Surface(139) = {139};

Line(664) = {216, 224};
Line(665) = {224, 223};
Line(666) = {223, 222};
Line(667) = {222, 216};

Line Loop(140) = {664, 665, 666, 667};
Plane Surface(140) = {140};

Line(668) = {217, 234};
Line(669) = {234, 229};
Line(670) = {229, 220};
Line(671) = {220, 218};
Line(672) = {218, 227};
Line(673) = {227, 213};
Line(674) = {213, 217};

Line Loop(141) = {668, 669, 670, 671, 672, 673, 674};
Plane Surface(141) = {141};

Line(675) = {217, 213};
Line(676) = {213, 225};
Line(677) = {225, 223};
Line(678) = {223, 224};
Line(679) = {224, 219};
Line(680) = {219, 217};

Line Loop(142) = {675, 676, 677, 678, 679, 680};
Plane Surface(142) = {142};

Line(681) = {218, 230};
Line(682) = {230, 228};
Line(683) = {228, 227};
Line(684) = {227, 218};

Line Loop(143) = {681, 682, 683, 684};
Plane Surface(143) = {143};

Line(685) = {220, 229};
Line(686) = {229, 233};
Line(687) = {233, 232};
Line(688) = {232, 231};
Line(689) = {231, 220};

Line Loop(144) = {685, 686, 687, 688, 689};
Plane Surface(144) = {144};

Line(690) = {222, 223};
Line(691) = {223, 225};
Line(692) = {225, 228};
Line(693) = {228, 230};
Line(694) = {230, 226};
Line(695) = {226, 222};

Line Loop(145) = {690, 691, 692, 693, 694, 695};
Plane Surface(145) = {145};

Line(696) = {225, 213};
Line(697) = {213, 227};
Line(698) = {227, 228};
Line(699) = {228, 225};

Line Loop(146) = {696, 697, 698, 699};
Plane Surface(146) = {146};

Line(700) = {229, 234};
Line(701) = {234, 233};
Line(702) = {233, 229};

Line Loop(147) = {700, 701, 702};
Plane Surface(147) = {147};

Surface Loop(15) = {135, 136, 137, 138, 139, 140, 141, 142, 143, 144, 145, 146, 147};
Volume(15) = {15};
Physical Volume(15) = {15};

Line(703) = {236, 244};
Line(704) = {244, 238};
Line(705) = {238, 248};
Line(706) = {248, 237};
Line(707) = {237, 236};

Line Loop(148) = {703, 704, 705, 706, 707};
Plane Surface(148) = {148};

Line(708) = {236, 241};
Line(709) = {241, 240};
Line(710) = {240, 245};
Line(711) = {245, 243};
Line(712) = {243, 244};
Line(713) = {244, 236};

Line Loop(149) = {708, 709, 710, 711, 712, 713};
Plane Surface(149) = {149};

Line(714) = {236, 237};
Line(715) = {237, 242};
Line(716) = {242, 241};
Line(717) = {241, 236};

Line Loop(150) = {714, 715, 716, 717};
Plane Surface(150) = {150};

Line(718) = {237, 248};
Line(719) = {248, 249};
Line(720) = {249, 250};
Line(721) = {250, 242};
Line(722) = {242, 237};

Line Loop(151) = {718, 719, 720, 721, 722};
Plane Surface(151) = {151};

Line(723) = {238, 239};
Line(724) = {239, 249};
Line(725) = {249, 248};
Line(726) = {248, 238};

Line Loop(152) = {723, 724, 725, 726};
Plane Surface(152) = {152};

Line(727) = {238, 244};
Line(728) = {244, 243};
Line(729) = {243, 252};
Line(730) = {252, 235};
Line(731) = {235, 239};
Line(732) = {239, 238};

Line Loop(153) = {727, 728, 729, 730, 731, 732};
Plane Surface(153) = {153};

Line(733) = {239, 235};
Line(734) = {235, 251};
Line(735) = {251, 247};
Line(736) = {247, 250};
Line(737) = {250, 249};
Line(738) = {249, 239};

Line Loop(154) = {733, 734, 735, 736, 737, 738};
Plane Surface(154) = {154};

Line(739) = {240, 246};
Line(740) = {246, 245};
Line(741) = {245, 240};

Line Loop(155) = {739, 740, 741};
Plane Surface(155) = {155};

Line(742) = {240, 241};
Line(743) = {241, 242};
Line(744) = {242, 250};
Line(745) = {250, 247};
Line(746) = {247, 246};
Line(747) = {246, 240};

Line Loop(156) = {742, 743, 744, 745, 746, 747};
Plane Surface(156) = {156};

Line(748) = {243, 245};
Line(749) = {245, 246};
Line(750) = {246, 247};
Line(751) = {247, 251};
Line(752) = {251, 252};
Line(753) = {252, 243};

Line Loop(157) = {748, 749, 750, 751, 752, 753};
Plane Surface(157) = {157};

Line(754) = {251, 235};
Line(755) = {235, 252};
Line(756) = {252, 251};

Line Loop(158) = {754, 755, 756};
Plane Surface(158) = {158};

Surface Loop(16) = {148, 149, 150, 151, 152, 153, 154, 155, 156, 157, 158};
Volume(16) = {16};
Physical Volume(16) = {16};

Line(757) = {254, 266};
Line(758) = {266, 265};
Line(759) = {265, 262};
Line(760) = {262, 255};
Line(761) = {255, 254};

Line Loop(159) = {757, 758, 759, 760, 761};
Plane Surface(159) = {159};

Line(762) = {254, 264};
Line(763) = {264, 257};
Line(764) = {257, 258};
Line(765) = {258, 266};
Line(766) = {266, 254};

Line Loop(160) = {762, 763, 764, 765, 766};
Plane Surface(160) = {160};

Line(767) = {254, 255};
Line(768) = {255, 259};
Line(769) = {259, 264};
Line(770) = {264, 254};

Line Loop(161) = {767, 768, 769, 770};
Plane Surface(161) = {161};

Line(771) = {255, 262};
Line(772) = {262, 261};
Line(773) = {261, 263};
Line(774) = {263, 253};
Line(775) = {253, 259};
Line(776) = {259, 255};

Line Loop(162) = {771, 772, 773, 774, 775, 776};
Plane Surface(162) = {162};

Line(777) = {256, 261};
Line(778) = {261, 262};
Line(779) = {262, 265};
Line(780) = {265, 256};

Line Loop(163) = {777, 778, 779, 780};
Plane Surface(163) = {163};

Line(781) = {256, 260};
Line(782) = {260, 263};
Line(783) = {263, 261};
Line(784) = {261, 256};

Line Loop(164) = {781, 782, 783, 784};
Plane Surface(164) = {164};

Line(785) = {256, 265};
Line(786) = {265, 266};
Line(787) = {266, 258};
Line(788) = {258, 260};
Line(789) = {260, 256};

Line Loop(165) = {785, 786, 787, 788, 789};
Plane Surface(165) = {165};

Line(790) = {257, 264};
Line(791) = {264, 259};
Line(792) = {259, 253};
Line(793) = {253, 257};

Line Loop(166) = {790, 791, 792, 793};
Plane Surface(166) = {166};

Line(794) = {257, 253};
Line(795) = {253, 263};
Line(796) = {263, 260};
Line(797) = {260, 258};
Line(798) = {258, 257};

Line Loop(167) = {794, 795, 796, 797, 798};
Plane Surface(167) = {167};

Surface Loop(17) = {159, 160, 161, 162, 163, 164, 165, 166, 167};
Volume(17) = {17};
Physical Volume(17) = {17};

Line(799) = {268, 270};
Line(800) = {270, 278};
Line(801) = {278, 277};
Line(802) = {277, 268};

Line Loop(168) = {799, 800, 801, 802};
Plane Surface(168) = {168};

Line(803) = {268, 271};
Line(804) = {271, 272};
Line(805) = {272, 273};
Line(806) = {273, 274};
Line(807) = {274, 270};
Line(808) = {270, 268};

Line Loop(169) = {803, 804, 805, 806, 807, 808};
Plane Surface(169) = {169};

Line(809) = {268, 277};
Line(810) = {277, 282};
Line(811) = {282, 269};
Line(812) = {269, 271};
Line(813) = {271, 268};

Line Loop(170) = {809, 810, 811, 812, 813};
Plane Surface(170) = {170};

Line(814) = {269, 282};
Line(815) = {282, 281};
Line(816) = {281, 269};

Line Loop(171) = {814, 815, 816};
Plane Surface(171) = {171};

Line(817) = {269, 281};
Line(818) = {281, 267};
Line(819) = {267, 272};
Line(820) = {272, 271};
Line(821) = {271, 269};

Line Loop(172) = {817, 818, 819, 820, 821};
Plane Surface(172) = {172};

Line(822) = {270, 274};
Line(823) = {274, 276};
Line(824) = {276, 279};
Line(825) = {279, 278};
Line(826) = {278, 270};

Line Loop(173) = {822, 823, 824, 825, 826};
Plane Surface(173) = {173};

Line(827) = {272, 267};
Line(828) = {267, 280};
Line(829) = {280, 275};
Line(830) = {275, 273};
Line(831) = {273, 272};

Line Loop(174) = {827, 828, 829, 830, 831};
Plane Surface(174) = {174};

Line(832) = {273, 275};
Line(833) = {275, 276};
Line(834) = {276, 274};
Line(835) = {274, 273};

Line Loop(175) = {832, 833, 834, 835};
Plane Surface(175) = {175};

Line(836) = {275, 280};
Line(837) = {280, 279};
Line(838) = {279, 276};
Line(839) = {276, 275};

Line Loop(176) = {836, 837, 838, 839};
Plane Surface(176) = {176};

Line(840) = {277, 278};
Line(841) = {278, 279};
Line(842) = {279, 280};
Line(843) = {280, 267};
Line(844) = {267, 281};
Line(845) = {281, 282};
Line(846) = {282, 277};

Line Loop(177) = {840, 841, 842, 843, 844, 845, 846};
Plane Surface(177) = {177};

Surface Loop(18) = {168, 169, 170, 171, 172, 173, 174, 175, 176, 177};
Volume(18) = {18};
Physical Volume(18) = {18};

Line(847) = {284, 283};
Line(848) = {283, 293};
Line(849) = {293, 294};
Line(850) = {294, 284};

Line Loop(178) = {847, 848, 849, 850};
Plane Surface(178) = {178};

Line(851) = {284, 286};
Line(852) = {286, 287};
Line(853) = {287, 291};
Line(854) = {291, 283};
Line(855) = {283, 284};

Line Loop(179) = {851, 852, 853, 854, 855};
Plane Surface(179) = {179};

Line(856) = {284, 294};
Line(857) = {294, 289};
Line(858) = {289, 290};
Line(859) = {290, 286};
Line(860) = {286, 284};

Line Loop(180) = {856, 857, 858, 859, 860};
Plane Surface(180) = {180};

Line(861) = {285, 288};
Line(862) = {288, 293};
Line(863) = {293, 283};
Line(864) = {283, 291};
Line(865) = {291, 292};
Line(866) = {292, 285};

Line Loop(181) = {861, 862, 863, 864, 865, 866};
Plane Surface(181) = {181};

Line(867) = {285, 290};
Line(868) = {290, 289};
Line(869) = {289, 288};
Line(870) = {288, 285};

Line Loop(182) = {867, 868, 869, 870};
Plane Surface(182) = {182};

Line(871) = {285, 292};
Line(872) = {292, 287};
Line(873) = {287, 286};
Line(874) = {286, 290};
Line(875) = {290, 285};

Line Loop(183) = {871, 872, 873, 874, 875};
Plane Surface(183) = {183};

Line(876) = {287, 292};
Line(877) = {292, 291};
Line(878) = {291, 287};

Line Loop(184) = {876, 877, 878};
Plane Surface(184) = {184};

Line(879) = {288, 289};
Line(880) = {289, 294};
Line(881) = {294, 293};
Line(882) = {293, 288};

Line Loop(185) = {879, 880, 881, 882};
Plane Surface(185) = {185};

Surface Loop(19) = {178, 179, 180, 181, 182, 183, 184, 185};
Volume(19) = {19};
Physical Volume(19) = {19};

Line(883) = {296, 309};
Line(884) = {309, 303};
Line(885) = {303, 295};
Line(886) = {295, 315};
Line(887) = {315, 296};

Line Loop(186) = {883, 884, 885, 886, 887};
Plane Surface(186) = {186};

Line(888) = {296, 310};
Line(889) = {310, 309};
Line(890) = {309, 296};

Line Loop(187) = {888, 889, 890};
Plane Surface(187) = {187};

Line(891) = {296, 315};
Line(892) = {315, 314};
Line(893) = {314, 304};
Line(894) = {304, 306};
Line(895) = {306, 307};
Line(896) = {307, 310};
Line(897) = {310, 296};

Line Loop(188) = {891, 892, 893, 894, 895, 896, 897};
Plane Surface(188) = {188};

Line(898) = {297, 304};
Line(899) = {304, 314};
Line(900) = {314, 316};
Line(901) = {316, 297};

Line Loop(189) = {898, 899, 900, 901};
Plane Surface(189) = {189};

Line(902) = {297, 298};
Line(903) = {298, 300};
Line(904) = {300, 302};
Line(905) = {302, 305};
Line(906) = {305, 306};
Line(907) = {306, 304};
Line(908) = {304, 297};

Line Loop(190) = {902, 903, 904, 905, 906, 907, 908};
Plane Surface(190) = {190};

Line(909) = {297, 316};
Line(910) = {316, 313};
Line(911) = {313, 311};
Line(912) = {311, 312};
Line(913) = {312, 298};
Line(914) = {298, 297};

Line Loop(191) = {909, 910, 911, 912, 913, 914};
Plane Surface(191) = {191};

Line(915) = {298, 312};
Line(916) = {312, 300};
Line(917) = {300, 298};

Line Loop(192) = {915, 916, 917};
Plane Surface(192) = {192};

Line(918) = {299, 303};
Line(919) = {303, 309};
Line(920) = {309, 310};
Line(921) = {310, 307};
Line(922) = {307, 308};
Line(923) = {308, 299};

Line Loop(193) = {918, 919, 920, 921, 922, 923};
Plane Surface(193) = {193};

Line(924) = {299, 301};
Line(925) = {301, 311};
Line(926) = {311, 313};
Line(927) = {313, 295};
Line(928) = {295, 303};
Line(929) = {303, 299};

Line Loop(194) = {924, 925, 926, 927, 928, 929};
Plane Surface(194) = {194};

Line(930) = {299, 308};
Line(931) = {308, 305};
Line(932) = {305, 302};
Line(933) = {302, 301};
Line(934) = {301, 299};

Line Loop(195) = {930, 931, 932, 933, 934};
Plane Surface(195) = {195};

Line(935) = {300, 312};
Line(936) = {312, 311};
Line(937) = {311, 301};
Line(938) = {301, 302};
Line(939) = {302, 300};

Line Loop(196) = {935, 936, 937, 938, 939};
Plane Surface(196) = {196};

Line(940) = {305, 308};
Line(941) = {308, 307};
Line(942) = {307, 306};
Line(943) = {306, 305};

Line Loop(197) = {940, 941, 942, 943};
Plane Surface(197) = {197};

Line(944) = {313, 316};
Line(945) = {316, 314};
Line(946) = {314, 315};
Line(947) = {315, 295};
Line(948) = {295, 313};

Line Loop(198) = {944, 945, 946, 947, 948};
Plane Surface(198) = {198};

Surface Loop(20) = {186, 187, 188, 189, 190, 191, 192, 193, 194, 195, 196, 197, 198};
Volume(20) = {20};
Physical Volume(20) = {20};

Coherence;

Physical Surface(868) = {180, 169, 106, 110, 40, 33, 80, 66, 165};
Physical Surface(869) = {60, 51, 132, 142, 3, 87, 26};
