// Gmsh file created using the Voronoi tesselation generator
// Timestamp: Fri Feb  5 11:07:10 2016

// Number of cells : 10
// Dimensions      : (-1, 1) (-1, 1) (-1, 1)
// Volume          : 8

Point(1) = {-1, -1, -1, 0.4};
Point(2) = {0.016944, -1, -1, 0.4};
Point(3) = {0.179929, -1, -0.69404, 0.4};
Point(4) = {-1, -0.402485, -1, 0.4};
Point(5) = {-1, -0.21003, 0.479084, 0.4};
Point(6) = {-1, -1, 0.508008, 0.4};
Point(7) = {-0.826701, -0.0979066, 0.298432, 0.4};
Point(8) = {-1, -0.0585874, 0.0987339, 0.4};
Point(9) = {0.244798, -1, -0.68433, 0.4};
Point(10) = {0.306589, -1, -1, 0.4};
Point(11) = {-0.826701, -0.0979066, 0.298432, 0.4};
Point(12) = {0.389986, -0.0304786, -1, 0.4};
Point(13) = {0.179929, -1, -0.69404, 0.4};
Point(14) = {-1, -0.402485, -1, 0.4};
Point(15) = {-1, 0.8675, -1, 0.4};
Point(16) = {-0.602299, 1, -1, 0.4};
Point(17) = {0.016944, -1, -1, 0.4};
Point(18) = {0.151595, -0.161471, 0.160289, 0.4};
Point(19) = {0.137631, -0.319248, 0.162295, 0.4};
Point(20) = {-1, -0.0585874, 0.0987339, 0.4};
Point(21) = {0.068198, 0.389557, -1, 0.4};
Point(22) = {-0.821998, 1, -1, 0.4};
Point(23) = {-0.141951, 0.179823, 0.27018, 0.4};
Point(24) = {-0.540095, -0.0465105, 0.406464, 0.4};
Point(25) = {-0.611131, 1, -0.813773, 0.4};
Point(26) = {-0.36305, 0.348761, 0.177966, 0.4};
Point(27) = {-0.630177, -0.039161, 0.402293, 0.4};
Point(28) = {-0.152408, 0.18237, 0.273916, 0.4};
Point(29) = {-0.398635, 0.791024, -0.454452, 0.4};
Point(30) = {-0.456437, 0.845341, -0.493665, 0.4};
Point(31) = {0.244798, -1, -0.68433, 0.4};
Point(32) = {1, -1, -1, 0.4};
Point(33) = {0.389986, -0.0304786, -1, 0.4};
Point(34) = {1, 0.132049, -1, 0.4};
Point(35) = {0.61002, -1, 0.394276, 0.4};
Point(36) = {1, -1, 0.557788, 0.4};
Point(37) = {1, 0.13033, 0.501475, 0.4};
Point(38) = {1, 0.176442, -0.680648, 0.4};
Point(39) = {0.800618, 0.117196, -1, 0.4};
Point(40) = {0.306589, -1, -1, 0.4};
Point(41) = {0.137631, -0.319248, 0.162295, 0.4};
Point(42) = {0.151595, -0.161471, 0.160289, 0.4};
Point(43) = {-0.398635, 0.791024, -0.454452, 0.4};
Point(44) = {1, 0.176442, -0.680648, 0.4};
Point(45) = {0.068198, 0.389557, -1, 0.4};
Point(46) = {1, 1, -1, 0.4};
Point(47) = {1, 0.565449, 0.250689, 0.4};
Point(48) = {1, 1, 0.153426, 0.4};
Point(49) = {-0.456437, 0.845341, -0.493665, 0.4};
Point(50) = {-0.463061, 1, -0.531382, 0.4};
Point(51) = {0.800618, 0.117196, -1, 0.4};
Point(52) = {1, 0.132049, -1, 0.4};
Point(53) = {-0.611131, 1, -0.813773, 0.4};
Point(54) = {-0.602299, 1, -1, 0.4};
Point(55) = {1, 0.260934, 0.568788, 0.4};
Point(56) = {-0.398635, 0.791024, -0.454452, 0.4};
Point(57) = {0.800618, 0.117196, -1, 0.4};
Point(58) = {-0.141951, 0.179823, 0.27018, 0.4};
Point(59) = {0.389986, -0.0304786, -1, 0.4};
Point(60) = {1, 0.176442, -0.680648, 0.4};
Point(61) = {0.068198, 0.389557, -1, 0.4};
Point(62) = {1, 0.565449, 0.250689, 0.4};
Point(63) = {0.151595, -0.161471, 0.160289, 0.4};
Point(64) = {1, 0.13033, 0.501475, 0.4};
Point(65) = {0.244798, -1, -0.68433, 0.4};
Point(66) = {-1, -0.29195, 0.848808, 0.4};
Point(67) = {0.179929, -1, -0.69404, 0.4};
Point(68) = {-0.998951, -0.384279, 1, 0.4};
Point(69) = {-1, -1, 1, 0.4};
Point(70) = {0.137631, -0.319248, 0.162295, 0.4};
Point(71) = {-1, -1, 0.508008, 0.4};
Point(72) = {-1, -0.384223, 1, 0.4};
Point(73) = {-0.267662, -1, 1, 0.4};
Point(74) = {0.61002, -1, 0.394276, 0.4};
Point(75) = {-0.540095, -0.0465105, 0.406464, 0.4};
Point(76) = {-1, -0.21003, 0.479084, 0.4};
Point(77) = {-0.630177, -0.039161, 0.402293, 0.4};
Point(78) = {-0.826701, -0.0979066, 0.298432, 0.4};
Point(79) = {-0.998951, -0.384279, 1, 0.4};
Point(80) = {-0.267662, -1, 1, 0.4};
Point(81) = {0.61002, -1, 0.394276, 0.4};
Point(82) = {1, 0.480178, 1, 0.4};
Point(83) = {1, -1, 0.557788, 0.4};
Point(84) = {1, -1, 1, 0.4};
Point(85) = {0.137631, -0.319248, 0.162295, 0.4};
Point(86) = {0.648283, 0.501957, 1, 0.4};
Point(87) = {-0.540095, -0.0465105, 0.406464, 0.4};
Point(88) = {0.151595, -0.161471, 0.160289, 0.4};
Point(89) = {-0.152408, 0.18237, 0.273916, 0.4};
Point(90) = {-0.141951, 0.179823, 0.27018, 0.4};
Point(91) = {1, 0.260934, 0.568788, 0.4};
Point(92) = {1, 0.13033, 0.501475, 0.4};
Point(93) = {-1, 0.0241942, 1, 0.4};
Point(94) = {-0.540095, -0.0465105, 0.406464, 0.4};
Point(95) = {-0.695837, 1, 1, 0.4};
Point(96) = {0.39802, 1, 1, 0.4};
Point(97) = {-1, -0.384223, 1, 0.4};
Point(98) = {-0.998951, -0.384279, 1, 0.4};
Point(99) = {-0.334979, 1, 0.446345, 0.4};
Point(100) = {0.648283, 0.501957, 1, 0.4};
Point(101) = {-0.152408, 0.18237, 0.273916, 0.4};
Point(102) = {-1, -0.29195, 0.848808, 0.4};
Point(103) = {-0.630177, -0.039161, 0.402293, 0.4};
Point(104) = {-0.36305, 0.348761, 0.177966, 0.4};
Point(105) = {-0.821998, 1, -1, 0.4};
Point(106) = {-0.630177, -0.039161, 0.402293, 0.4};
Point(107) = {-1, 1, -1, 0.4};
Point(108) = {-0.826701, -0.0979066, 0.298432, 0.4};
Point(109) = {-1, -0.29195, 0.848808, 0.4};
Point(110) = {-1, 0.0241942, 1, 0.4};
Point(111) = {-1, 1, 1, 0.4};
Point(112) = {-0.695837, 1, 1, 0.4};
Point(113) = {-0.36305, 0.348761, 0.177966, 0.4};
Point(114) = {-1, -0.21003, 0.479084, 0.4};
Point(115) = {-1, -0.0585874, 0.0987339, 0.4};
Point(116) = {-1, 0.8675, -1, 0.4};
Point(117) = {-0.463061, 1, -0.531382, 0.4};
Point(118) = {-0.334979, 1, 0.446345, 0.4};
Point(119) = {-0.456437, 0.845341, -0.493665, 0.4};
Point(120) = {-0.611131, 1, -0.813773, 0.4};
Point(121) = {-0.463061, 1, -0.531382, 0.4};
Point(122) = {-0.141951, 0.179823, 0.27018, 0.4};
Point(123) = {1, 1, 0.153426, 0.4};
Point(124) = {1, 0.565449, 0.250689, 0.4};
Point(125) = {1, 0.480178, 1, 0.4};
Point(126) = {0.39802, 1, 1, 0.4};
Point(127) = {-0.334979, 1, 0.446345, 0.4};
Point(128) = {1, 1, 1, 0.4};
Point(129) = {-0.398635, 0.791024, -0.454452, 0.4};
Point(130) = {0.648283, 0.501957, 1, 0.4};
Point(131) = {-0.456437, 0.845341, -0.493665, 0.4};
Point(132) = {1, 0.260934, 0.568788, 0.4};
Point(133) = {-0.152408, 0.18237, 0.273916, 0.4};
Point(134) = {-0.36305, 0.348761, 0.177966, 0.4};

Line(1) = {2, 3};
Line(2) = {3, 7};
Line(3) = {7, 8};
Line(4) = {8, 4};
Line(5) = {4, 2};

Line Loop(1) = {1, 2, 3, 4, 5};
Plane Surface(1) = {1};

Line(6) = {2, 1};
Line(7) = {1, 6};
Line(8) = {6, 3};
Line(9) = {3, 2};

Line Loop(2) = {6, 7, 8, 9};
Plane Surface(2) = {2};

Line(10) = {2, 4};
Line(11) = {4, 1};
Line(12) = {1, 2};

Line Loop(3) = {10, 11, 12};
Plane Surface(3) = {3};

Line(13) = {3, 6};
Line(14) = {6, 5};
Line(15) = {5, 7};
Line(16) = {7, 3};

Line Loop(4) = {13, 14, 15, 16};
Plane Surface(4) = {4};

Line(17) = {4, 8};
Line(18) = {8, 5};
Line(19) = {5, 6};
Line(20) = {6, 1};
Line(21) = {1, 4};

Line Loop(5) = {17, 18, 19, 20, 21};
Plane Surface(5) = {5};

Line(22) = {5, 8};
Line(23) = {8, 7};
Line(24) = {7, 5};

Line Loop(6) = {22, 23, 24};
Plane Surface(6) = {6};

Surface Loop(1) = {1, 2, 3, 4, 5, 6};
Volume(1) = {1};
Physical Volume(1) = {1};

Line(25) = {10, 9};
Line(26) = {9, 19};
Line(27) = {19, 18};
Line(28) = {18, 12};
Line(29) = {12, 10};

Line Loop(7) = {25, 26, 27, 28, 29};
Plane Surface(7) = {7};

Line(30) = {10, 17};
Line(31) = {17, 13};
Line(32) = {13, 9};
Line(33) = {9, 10};

Line Loop(8) = {30, 31, 32, 33};
Plane Surface(8) = {8};

Line(34) = {10, 12};
Line(35) = {12, 21};
Line(36) = {21, 16};
Line(37) = {16, 22};
Line(38) = {22, 15};
Line(39) = {15, 14};
Line(40) = {14, 17};
Line(41) = {17, 10};

Line Loop(9) = {34, 35, 36, 37, 38, 39, 40, 41};
Plane Surface(9) = {9};

Line(42) = {11, 20};
Line(43) = {20, 15};
Line(44) = {15, 22};
Line(45) = {22, 25};
Line(46) = {25, 30};
Line(47) = {30, 26};
Line(48) = {26, 27};
Line(49) = {27, 11};

Line Loop(10) = {42, 43, 44, 45, 46, 47, 48, 49};
Plane Surface(10) = {10};

Line(50) = {11, 13};
Line(51) = {13, 17};
Line(52) = {17, 14};
Line(53) = {14, 20};
Line(54) = {20, 11};

Line Loop(11) = {50, 51, 52, 53, 54};
Plane Surface(11) = {11};

Line(55) = {11, 27};
Line(56) = {27, 24};
Line(57) = {24, 19};
Line(58) = {19, 9};
Line(59) = {9, 13};
Line(60) = {13, 11};

Line Loop(12) = {55, 56, 57, 58, 59, 60};
Plane Surface(12) = {12};

Line(61) = {12, 18};
Line(62) = {18, 23};
Line(63) = {23, 29};
Line(64) = {29, 21};
Line(65) = {21, 12};

Line Loop(13) = {61, 62, 63, 64, 65};
Plane Surface(13) = {13};

Line(66) = {14, 15};
Line(67) = {15, 20};
Line(68) = {20, 14};

Line Loop(14) = {66, 67, 68};
Plane Surface(14) = {14};

Line(69) = {16, 21};
Line(70) = {21, 29};
Line(71) = {29, 30};
Line(72) = {30, 25};
Line(73) = {25, 16};

Line Loop(15) = {69, 70, 71, 72, 73};
Plane Surface(15) = {15};

Line(74) = {16, 25};
Line(75) = {25, 22};
Line(76) = {22, 16};

Line Loop(16) = {74, 75, 76};
Plane Surface(16) = {16};

Line(77) = {18, 19};
Line(78) = {19, 24};
Line(79) = {24, 28};
Line(80) = {28, 23};
Line(81) = {23, 18};

Line Loop(17) = {77, 78, 79, 80, 81};
Plane Surface(17) = {17};

Line(82) = {23, 28};
Line(83) = {28, 26};
Line(84) = {26, 30};
Line(85) = {30, 29};
Line(86) = {29, 23};

Line Loop(18) = {82, 83, 84, 85, 86};
Plane Surface(18) = {18};

Line(87) = {24, 27};
Line(88) = {27, 26};
Line(89) = {26, 28};
Line(90) = {28, 24};

Line Loop(19) = {87, 88, 89, 90};
Plane Surface(19) = {19};

Surface Loop(2) = {7, 8, 9, 10, 11, 12, 13, 14, 15, 16, 17, 18, 19};
Volume(2) = {2};
Physical Volume(2) = {2};

Line(91) = {32, 34};
Line(92) = {34, 39};
Line(93) = {39, 33};
Line(94) = {33, 40};
Line(95) = {40, 32};

Line Loop(20) = {91, 92, 93, 94, 95};
Plane Surface(20) = {20};

Line(96) = {32, 36};
Line(97) = {36, 37};
Line(98) = {37, 38};
Line(99) = {38, 34};
Line(100) = {34, 32};

Line Loop(21) = {96, 97, 98, 99, 100};
Plane Surface(21) = {21};

Line(101) = {32, 40};
Line(102) = {40, 31};
Line(103) = {31, 35};
Line(104) = {35, 36};
Line(105) = {36, 32};

Line Loop(22) = {101, 102, 103, 104, 105};
Plane Surface(22) = {22};

Line(106) = {33, 42};
Line(107) = {42, 41};
Line(108) = {41, 31};
Line(109) = {31, 40};
Line(110) = {40, 33};

Line Loop(23) = {106, 107, 108, 109, 110};
Plane Surface(23) = {23};

Line(111) = {33, 39};
Line(112) = {39, 38};
Line(113) = {38, 37};
Line(114) = {37, 42};
Line(115) = {42, 33};

Line Loop(24) = {111, 112, 113, 114, 115};
Plane Surface(24) = {24};

Line(116) = {34, 38};
Line(117) = {38, 39};
Line(118) = {39, 34};

Line Loop(25) = {116, 117, 118};
Plane Surface(25) = {25};

Line(119) = {35, 31};
Line(120) = {31, 41};
Line(121) = {41, 35};

Line Loop(26) = {119, 120, 121};
Plane Surface(26) = {26};

Line(122) = {35, 41};
Line(123) = {41, 42};
Line(124) = {42, 37};
Line(125) = {37, 36};
Line(126) = {36, 35};

Line Loop(27) = {122, 123, 124, 125, 126};
Plane Surface(27) = {27};

Surface Loop(3) = {20, 21, 22, 23, 24, 25, 26, 27};
Volume(3) = {3};
Physical Volume(3) = {3};

Line(127) = {44, 52};
Line(128) = {52, 51};
Line(129) = {51, 44};

Line Loop(28) = {127, 128, 129};
Plane Surface(28) = {28};

Line(130) = {44, 47};
Line(131) = {47, 48};
Line(132) = {48, 46};
Line(133) = {46, 52};
Line(134) = {52, 44};

Line Loop(29) = {130, 131, 132, 133, 134};
Plane Surface(29) = {29};

Line(135) = {44, 51};
Line(136) = {51, 45};
Line(137) = {45, 43};
Line(138) = {43, 47};
Line(139) = {47, 44};

Line Loop(30) = {135, 136, 137, 138, 139};
Plane Surface(30) = {30};

Line(140) = {45, 54};
Line(141) = {54, 53};
Line(142) = {53, 49};
Line(143) = {49, 43};
Line(144) = {43, 45};

Line Loop(31) = {140, 141, 142, 143, 144};
Plane Surface(31) = {31};

Line(145) = {45, 51};
Line(146) = {51, 52};
Line(147) = {52, 46};
Line(148) = {46, 54};
Line(149) = {54, 45};

Line Loop(32) = {145, 146, 147, 148, 149};
Plane Surface(32) = {32};

Line(150) = {46, 48};
Line(151) = {48, 50};
Line(152) = {50, 53};
Line(153) = {53, 54};
Line(154) = {54, 46};

Line Loop(33) = {150, 151, 152, 153, 154};
Plane Surface(33) = {33};

Line(155) = {47, 43};
Line(156) = {43, 49};
Line(157) = {49, 50};
Line(158) = {50, 48};
Line(159) = {48, 47};

Line Loop(34) = {155, 156, 157, 158, 159};
Plane Surface(34) = {34};

Line(160) = {49, 53};
Line(161) = {53, 50};
Line(162) = {50, 49};

Line Loop(35) = {160, 161, 162};
Plane Surface(35) = {35};

Surface Loop(4) = {28, 29, 30, 31, 32, 33, 34, 35};
Volume(4) = {4};
Physical Volume(4) = {4};

Line(163) = {56, 58};
Line(164) = {58, 63};
Line(165) = {63, 59};
Line(166) = {59, 61};
Line(167) = {61, 56};

Line Loop(36) = {163, 164, 165, 166, 167};
Plane Surface(36) = {36};

Line(168) = {56, 62};
Line(169) = {62, 55};
Line(170) = {55, 58};
Line(171) = {58, 56};

Line Loop(37) = {168, 169, 170, 171};
Plane Surface(37) = {37};

Line(172) = {56, 61};
Line(173) = {61, 57};
Line(174) = {57, 60};
Line(175) = {60, 62};
Line(176) = {62, 56};

Line Loop(38) = {172, 173, 174, 175, 176};
Plane Surface(38) = {38};

Line(177) = {57, 59};
Line(178) = {59, 63};
Line(179) = {63, 64};
Line(180) = {64, 60};
Line(181) = {60, 57};

Line Loop(39) = {177, 178, 179, 180, 181};
Plane Surface(39) = {39};

Line(182) = {57, 61};
Line(183) = {61, 59};
Line(184) = {59, 57};

Line Loop(40) = {182, 183, 184};
Plane Surface(40) = {40};

Line(185) = {58, 55};
Line(186) = {55, 64};
Line(187) = {64, 63};
Line(188) = {63, 58};

Line Loop(41) = {185, 186, 187, 188};
Plane Surface(41) = {41};

Line(189) = {60, 64};
Line(190) = {64, 55};
Line(191) = {55, 62};
Line(192) = {62, 60};

Line Loop(42) = {189, 190, 191, 192};
Plane Surface(42) = {42};

Surface Loop(5) = {36, 37, 38, 39, 40, 41, 42};
Volume(5) = {5};
Physical Volume(5) = {5};

Line(193) = {66, 76};
Line(194) = {76, 78};
Line(195) = {78, 77};
Line(196) = {77, 66};

Line Loop(43) = {193, 194, 195, 196};
Plane Surface(43) = {43};

Line(197) = {66, 72};
Line(198) = {72, 69};
Line(199) = {69, 71};
Line(200) = {71, 76};
Line(201) = {76, 66};

Line Loop(44) = {197, 198, 199, 200, 201};
Plane Surface(44) = {44};

Line(202) = {66, 77};
Line(203) = {77, 75};
Line(204) = {75, 68};
Line(205) = {68, 72};
Line(206) = {72, 66};

Line Loop(45) = {202, 203, 204, 205, 206};
Plane Surface(45) = {45};

Line(207) = {67, 65};
Line(208) = {65, 70};
Line(209) = {70, 75};
Line(210) = {75, 77};
Line(211) = {77, 78};
Line(212) = {78, 67};

Line Loop(46) = {207, 208, 209, 210, 211, 212};
Plane Surface(46) = {46};

Line(213) = {67, 71};
Line(214) = {71, 69};
Line(215) = {69, 73};
Line(216) = {73, 74};
Line(217) = {74, 65};
Line(218) = {65, 67};

Line Loop(47) = {213, 214, 215, 216, 217, 218};
Plane Surface(47) = {47};

Line(219) = {67, 78};
Line(220) = {78, 76};
Line(221) = {76, 71};
Line(222) = {71, 67};

Line Loop(48) = {219, 220, 221, 222};
Plane Surface(48) = {48};

Line(223) = {68, 73};
Line(224) = {73, 69};
Line(225) = {69, 72};
Line(226) = {72, 68};

Line Loop(49) = {223, 224, 225, 226};
Plane Surface(49) = {49};

Line(227) = {68, 75};
Line(228) = {75, 70};
Line(229) = {70, 74};
Line(230) = {74, 73};
Line(231) = {73, 68};

Line Loop(50) = {227, 228, 229, 230, 231};
Plane Surface(50) = {50};

Line(232) = {70, 65};
Line(233) = {65, 74};
Line(234) = {74, 70};

Line Loop(51) = {232, 233, 234};
Plane Surface(51) = {51};

Surface Loop(6) = {43, 44, 45, 46, 47, 48, 49, 50, 51};
Volume(6) = {6};
Physical Volume(6) = {6};

Line(235) = {80, 81};
Line(236) = {81, 85};
Line(237) = {85, 87};
Line(238) = {87, 79};
Line(239) = {79, 80};

Line Loop(52) = {235, 236, 237, 238, 239};
Plane Surface(52) = {52};

Line(240) = {80, 84};
Line(241) = {84, 83};
Line(242) = {83, 81};
Line(243) = {81, 80};

Line Loop(53) = {240, 241, 242, 243};
Plane Surface(53) = {53};

Line(244) = {80, 79};
Line(245) = {79, 86};
Line(246) = {86, 82};
Line(247) = {82, 84};
Line(248) = {84, 80};

Line Loop(54) = {244, 245, 246, 247, 248};
Plane Surface(54) = {54};

Line(249) = {81, 83};
Line(250) = {83, 92};
Line(251) = {92, 88};
Line(252) = {88, 85};
Line(253) = {85, 81};

Line Loop(55) = {249, 250, 251, 252, 253};
Plane Surface(55) = {55};

Line(254) = {82, 86};
Line(255) = {86, 89};
Line(256) = {89, 90};
Line(257) = {90, 91};
Line(258) = {91, 82};

Line Loop(56) = {254, 255, 256, 257, 258};
Plane Surface(56) = {56};

Line(259) = {82, 91};
Line(260) = {91, 92};
Line(261) = {92, 83};
Line(262) = {83, 84};
Line(263) = {84, 82};

Line Loop(57) = {259, 260, 261, 262, 263};
Plane Surface(57) = {57};

Line(264) = {85, 88};
Line(265) = {88, 90};
Line(266) = {90, 89};
Line(267) = {89, 87};
Line(268) = {87, 85};

Line Loop(58) = {264, 265, 266, 267, 268};
Plane Surface(58) = {58};

Line(269) = {86, 79};
Line(270) = {79, 87};
Line(271) = {87, 89};
Line(272) = {89, 86};

Line Loop(59) = {269, 270, 271, 272};
Plane Surface(59) = {59};

Line(273) = {88, 92};
Line(274) = {92, 91};
Line(275) = {91, 90};
Line(276) = {90, 88};

Line Loop(60) = {273, 274, 275, 276};
Plane Surface(60) = {60};

Surface Loop(7) = {52, 53, 54, 55, 56, 57, 58, 59, 60};
Volume(7) = {7};
Physical Volume(7) = {7};

Line(277) = {94, 101};
Line(278) = {101, 104};
Line(279) = {104, 103};
Line(280) = {103, 94};

Line Loop(61) = {277, 278, 279, 280};
Plane Surface(61) = {61};

Line(281) = {94, 98};
Line(282) = {98, 100};
Line(283) = {100, 101};
Line(284) = {101, 94};

Line Loop(62) = {281, 282, 283, 284};
Plane Surface(62) = {62};

Line(285) = {94, 103};
Line(286) = {103, 102};
Line(287) = {102, 97};
Line(288) = {97, 98};
Line(289) = {98, 94};

Line Loop(63) = {285, 286, 287, 288, 289};
Plane Surface(63) = {63};

Line(290) = {95, 93};
Line(291) = {93, 102};
Line(292) = {102, 103};
Line(293) = {103, 104};
Line(294) = {104, 99};
Line(295) = {99, 95};

Line Loop(64) = {290, 291, 292, 293, 294, 295};
Plane Surface(64) = {64};

Line(296) = {95, 96};
Line(297) = {96, 100};
Line(298) = {100, 98};
Line(299) = {98, 97};
Line(300) = {97, 93};
Line(301) = {93, 95};

Line Loop(65) = {296, 297, 298, 299, 300, 301};
Plane Surface(65) = {65};

Line(302) = {95, 99};
Line(303) = {99, 96};
Line(304) = {96, 95};

Line Loop(66) = {302, 303, 304};
Plane Surface(66) = {66};

Line(305) = {96, 99};
Line(306) = {99, 104};
Line(307) = {104, 101};
Line(308) = {101, 100};
Line(309) = {100, 96};

Line Loop(67) = {305, 306, 307, 308, 309};
Plane Surface(67) = {67};

Line(310) = {97, 102};
Line(311) = {102, 93};
Line(312) = {93, 97};

Line Loop(68) = {310, 311, 312};
Plane Surface(68) = {68};

Surface Loop(8) = {61, 62, 63, 64, 65, 66, 67, 68};
Volume(8) = {8};
Physical Volume(8) = {8};

Line(313) = {106, 113};
Line(314) = {113, 119};
Line(315) = {119, 120};
Line(316) = {120, 105};
Line(317) = {105, 116};
Line(318) = {116, 115};
Line(319) = {115, 108};
Line(320) = {108, 106};

Line Loop(69) = {313, 314, 315, 316, 317, 318, 319, 320};
Plane Surface(69) = {69};

Line(321) = {106, 109};
Line(322) = {109, 110};
Line(323) = {110, 112};
Line(324) = {112, 118};
Line(325) = {118, 113};
Line(326) = {113, 106};

Line Loop(70) = {321, 322, 323, 324, 325, 326};
Plane Surface(70) = {70};

Line(327) = {106, 108};
Line(328) = {108, 114};
Line(329) = {114, 109};
Line(330) = {109, 106};

Line Loop(71) = {327, 328, 329, 330};
Plane Surface(71) = {71};

Line(331) = {107, 116};
Line(332) = {116, 105};
Line(333) = {105, 107};

Line Loop(72) = {331, 332, 333};
Plane Surface(72) = {72};

Line(334) = {107, 111};
Line(335) = {111, 110};
Line(336) = {110, 109};
Line(337) = {109, 114};
Line(338) = {114, 115};
Line(339) = {115, 116};
Line(340) = {116, 107};

Line Loop(73) = {334, 335, 336, 337, 338, 339, 340};
Plane Surface(73) = {73};

Line(341) = {107, 105};
Line(342) = {105, 120};
Line(343) = {120, 117};
Line(344) = {117, 118};
Line(345) = {118, 112};
Line(346) = {112, 111};
Line(347) = {111, 107};

Line Loop(74) = {341, 342, 343, 344, 345, 346, 347};
Plane Surface(74) = {74};

Line(348) = {108, 115};
Line(349) = {115, 114};
Line(350) = {114, 108};

Line Loop(75) = {348, 349, 350};
Plane Surface(75) = {75};

Line(351) = {110, 111};
Line(352) = {111, 112};
Line(353) = {112, 110};

Line Loop(76) = {351, 352, 353};
Plane Surface(76) = {76};

Line(354) = {113, 118};
Line(355) = {118, 117};
Line(356) = {117, 119};
Line(357) = {119, 113};

Line Loop(77) = {354, 355, 356, 357};
Plane Surface(77) = {77};

Line(358) = {117, 120};
Line(359) = {120, 119};
Line(360) = {119, 117};

Line Loop(78) = {358, 359, 360};
Plane Surface(78) = {78};

Surface Loop(9) = {69, 70, 71, 72, 73, 74, 75, 76, 77, 78};
Volume(9) = {9};
Physical Volume(9) = {9};

Line(361) = {122, 129};
Line(362) = {129, 131};
Line(363) = {131, 134};
Line(364) = {134, 133};
Line(365) = {133, 122};

Line Loop(79) = {361, 362, 363, 364, 365};
Plane Surface(79) = {79};

Line(366) = {122, 132};
Line(367) = {132, 124};
Line(368) = {124, 129};
Line(369) = {129, 122};

Line Loop(80) = {366, 367, 368, 369};
Plane Surface(80) = {80};

Line(370) = {122, 133};
Line(371) = {133, 130};
Line(372) = {130, 125};
Line(373) = {125, 132};
Line(374) = {132, 122};

Line Loop(81) = {370, 371, 372, 373, 374};
Plane Surface(81) = {81};

Line(375) = {123, 121};
Line(376) = {121, 131};
Line(377) = {131, 129};
Line(378) = {129, 124};
Line(379) = {124, 123};

Line Loop(82) = {375, 376, 377, 378, 379};
Plane Surface(82) = {82};

Line(380) = {123, 128};
Line(381) = {128, 126};
Line(382) = {126, 127};
Line(383) = {127, 121};
Line(384) = {121, 123};

Line Loop(83) = {380, 381, 382, 383, 384};
Plane Surface(83) = {83};

Line(385) = {123, 124};
Line(386) = {124, 132};
Line(387) = {132, 125};
Line(388) = {125, 128};
Line(389) = {128, 123};

Line Loop(84) = {385, 386, 387, 388, 389};
Plane Surface(84) = {84};

Line(390) = {125, 130};
Line(391) = {130, 126};
Line(392) = {126, 128};
Line(393) = {128, 125};

Line Loop(85) = {390, 391, 392, 393};
Plane Surface(85) = {85};

Line(394) = {126, 130};
Line(395) = {130, 133};
Line(396) = {133, 134};
Line(397) = {134, 127};
Line(398) = {127, 126};

Line Loop(86) = {394, 395, 396, 397, 398};
Plane Surface(86) = {86};

Line(399) = {127, 134};
Line(400) = {134, 131};
Line(401) = {131, 121};
Line(402) = {121, 127};

Line Loop(87) = {399, 400, 401, 402};
Plane Surface(87) = {87};

Surface Loop(10) = {79, 80, 81, 82, 83, 84, 85, 86, 87};
Volume(10) = {10};
Physical Volume(10) = {10};

Coherence;
Physical Surface(5) = {5, 14, 44, 68, 73};

Physical Surface(3) = {21, 29, 42, 57, 84};

Physical Surface(2) = {2, 8, 22, 47, 53};
Physical Surface(4) = {16, 33, 66, 74, 83};

Physical Surface(1) = {3, 9, 20, 32, 40, 72};

Physical Surface(6) = {49, 54, 65, 76, 85};

